<svg xmlns="http://www.w3.org/2000/svg" viewBox="0 0 24 24" width="1em" height="1em">
    <path fill="none" stroke="currentColor" stroke-linecap="round" stroke-linejoin="round" stroke-width="2" d="M5 8L5 19C5 19 5 21 7 21L15 21C17 21 17 19 17 19L17 8M18 17L20 17C21 17 21 16 21 16L21 11C21 11 21 10 20 10L18 10M9 11L9 17M13 11L13 17M5 3C2 3 2 8 5 8C6.25 8 6.5 7 8 7C9.5 7 9.5 8 11 8C12.5 8 12.5 7 14 7C15.5 7 15.75 8 17 8C20 8 20 3 17 3C15.75 3 15.5 4 14 4C12.5 4 12.5 3 11 3C9.5 3 9.5 4 8 4C6.5 4 6.25 3 5 3Z"/>
</svg>