<svg xmlns="http://www.w3.org/2000/svg" viewBox="0 0 24 24" width="1em" height="1em">
    <path fill="none" stroke="currentColor" stroke-linecap="round" stroke-linejoin="round" stroke-width="2" d="M10 5.5L14 5.5L14 9.5L10 9.5L10 5.5ZM3 14.5L7 14.5L7 18.5L3 18.5L3 14.5ZM17 14.5L21 14.5L21 18.5L17 18.5L17 14.5ZM2 7.5C2 6.94772 2.44772 6.5 3 6.5C3.55228 6.5 4 6.94772 4 7.5C4 8.05228 3.55228 8.5 3 8.5C2.44772 8.5 2 8.05228 2 7.5ZM20 7.5C20 6.94772 20.4477 6.5 21 6.5C21.5523 6.5 22 6.94772 22 7.5C22 8.05228 21.5523 8.5 21 8.5C20.4477 8.5 20 8.05228 20 7.5ZM3 7.5L10 7.5M14 7.5L21 7.5M5 14.5C5 11.0714 6 8.64286 10 7.5M19 14.5C19 11.0714 18 8.64286 14 7.5"/>
</svg>