<svg xmlns="http://www.w3.org/2000/svg" viewBox="0 0 24 24" width="1em" height="1em">
    <path fill="none" stroke="currentColor" stroke-linecap="round" stroke-linejoin="round" stroke-width="2" d="M5 17C5 15.8954 5.89543 15 7 15C8.10457 15 9 15.8954 9 17C9 18.1046 8.10457 19 7 19C5.89543 19 5 18.1046 5 17ZM15 17C15 15.8954 15.8954 15 17 15C18.1046 15 19 15.8954 19 17C19 18.1046 18.1046 19 17 19C15.8954 19 15 18.1046 15 17ZM9 17L15 17M5 17L3 17C3 17 2 17 2 16L2 7C2 7 2 5 4 5L17 5C22 5 22 12 22 12L22 16C22 17 21 17 21 17L19 17M16 5L17 11L21 11M2 10L16 10M12 5L12 10M7 5L7 10"/>
</svg>