<svg xmlns="http://www.w3.org/2000/svg" viewBox="0 0 24 24" width="1em" height="1em">
    <path fill="none" stroke="currentColor" stroke-linecap="round" stroke-linejoin="round" stroke-width="2" d="M9 9C9 9 7.99264 9 6.75 9C5.50736 9 4.5 7.99264 4.5 6.75C4.5 5.50736 5.50736 4.5 6.75 4.5C7.99264 4.5 9 5.50736 9 6.75C9 7.99264 9 9 9 9ZM9 15C9 15 7.99264 15 6.75 15C5.50736 15 4.5 16.0074 4.5 17.25C4.5 18.4926 5.50736 19.5 6.75 19.5C7.99264 19.5 9 18.4926 9 17.25C9 16.0074 9 15 9 15ZM15 15C15 15 16.0074 15 17.25 15C18.4926 15 19.5 16.0074 19.5 17.25C19.5 18.4926 18.4926 19.5 17.25 19.5C16.0074 19.5 15 18.4926 15 17.25C15 16.0074 15 15 15 15ZM15 9C15 9 16.0074 9 17.25 9C18.4926 9 19.5 7.99264 19.5 6.75C19.5 5.50736 18.4926 4.5 17.25 4.5C16.0074 4.5 15 5.50736 15 6.75C15 7.99264 15 9 15 9ZM9 9L9 15L15 15L15 9L9 9Z"/>
</svg>