<svg xmlns="http://www.w3.org/2000/svg" viewBox="0 0 24 24" width="1em" height="1em">
    <path fill="none" stroke="currentColor" stroke-linecap="round" stroke-linejoin="round" stroke-width="2" d="M3 12C3 7.02944 7.02944 3 12 3C16.9706 3 21 7.02944 21 12C21 16.9706 16.9706 21 12 21C7.02944 21 3 16.9706 3 12ZM15 9L15 10M9 10L9 9M8.5 9.5C8.5 9.22386 8.72386 9 9 9C9.27614 9 9.5 9.22386 9.5 9.5C9.5 9.77614 9.27614 10 9 10C8.72386 10 8.5 9.77614 8.5 9.5ZM14.5 9.5C14.5 9.22386 14.7239 9 15 9C15.2761 9 15.5 9.22386 15.5 9.5C15.5 9.77614 15.2761 10 15 10C14.7239 10 14.5 9.77614 14.5 9.5ZM8 14C8 14 9 16 12 16C15 16 16 14 16 14"/>
</svg>