<svg xmlns="http://www.w3.org/2000/svg" viewBox="0 0 24 24" width="1em" height="1em">
    <path fill="none" stroke="currentColor" stroke-linecap="round" stroke-linejoin="round" stroke-width="2" d="M3 16.5C3 14.567 4.567 13 6.5 13C8.433 13 10 14.567 10 16.5C10 18.433 8.433 20 6.5 20C4.567 20 3 18.433 3 16.5ZM14 16.5C14 14.567 15.567 13 17.5 13C19.433 13 21 14.567 21 16.5C21 18.433 19.433 20 17.5 20C15.567 20 14 18.433 14 16.5ZM10 15C11 14 13 14 14 15M3 16L4.62332 8.69504L5 7C6 4 8 4 8 4M21 16L19.3767 8.69504L19 7C18 4 16 4 16 4"/>
</svg>