<svg xmlns="http://www.w3.org/2000/svg" viewBox="0 0 24 24" width="1em" height="1em">
    <path fill="none" stroke="currentColor" stroke-linecap="round" stroke-linejoin="round" stroke-width="2" d="M4 5C4 5 4 4 5 4L9 4C10 4 10 5 10 5L10 9C10 9 10 10 9 10L5 10C4 10 4 9 4 9L4 5ZM4 15C4 15 4 14 5 14L9 14C10 14 10 15 10 15L10 19C10 19 10 20 9 20L5 20C4 20 4 19 4 19L4 15ZM14 5C14 5 14 4 15 4L19 4C20 4 20 5 20 5L20 9C20 9 20 10 19 10L15 10C14 10 14 9 14 9L14 5ZM19 19L20 20M14 16.5C14 15.1193 15.1193 14 16.5 14C17.8807 14 19 15.1193 19 16.5C19 17.8807 17.8807 19 16.5 19C15.1193 19 14 17.8807 14 16.5Z"/>
</svg>