<svg xmlns="http://www.w3.org/2000/svg" viewBox="0 0 24 24" width="1em" height="1em">
    <path fill="none" stroke="currentColor" stroke-linecap="round" stroke-linejoin="round" stroke-width="2" d="M12 21C3 21 3 12 3 12C3 12 3 3 12 3C21 3 21 11 21 11C21 11 21 15 17 15L13 15C11 15 11 17 11 17C11 17 11 19 13 19C13 19 14 19 14 20C14 21 12 21 12 21ZM11 7C11 6.44772 11.4477 6 12 6C12.5523 6 13 6.44772 13 7C13 7.55228 12.5523 8 12 8C11.4477 8 11 7.55228 11 7ZM15 10C15 9.44772 15.4477 9 16 9C16.5523 9 17 9.44772 17 10C17 10.5523 16.5523 11 16 11C15.4477 11 15 10.5523 15 10ZM7 10C7 9.44772 7.44772 9 8 9C8.55228 9 9 9.44772 9 10C9 10.5523 8.55228 11 8 11C7.44772 11 7 10.5523 7 10Z"/>
</svg>