<svg xmlns="http://www.w3.org/2000/svg" viewBox="0 0 24 24" width="1em" height="1em">
    <path fill="none" stroke="currentColor" stroke-linecap="round" stroke-linejoin="round" stroke-width="2" d="M3 3L21 21M20 15.9803L20 8C20 8 20 7 19 7L10.9793 7M7 7L4 7L4 19C4 19 4 20 5 20L19 20M15.9163 11L19 11M5 11L11 11M7 15.5C7 14.6716 7.67157 14 8.5 14C9.32843 14 10 14.6716 10 15.5C10 16.3284 9.32843 17 8.5 17C7.67157 17 7 16.3284 7 15.5ZM13 14L14 14M9.39965 5.03649L15 3M4 7L6.08664 6.24122M13 17L17 17"/>
</svg>