<svg xmlns="http://www.w3.org/2000/svg" viewBox="0 0 24 24" width="1em" height="1em">
    <path fill="none" stroke="currentColor" stroke-linecap="round" stroke-linejoin="round" stroke-width="2" d="M14 5C14 3.89543 14.8954 3 16 3C17.1046 3 18 3.89543 18 5C18 6.10457 17.1046 7 16 7C14.8954 7 14 6.10457 14 5ZM6 12C6 10.8954 6.89543 10 8 10C9.10457 10 10 10.8954 10 12C10 13.1046 9.10457 14 8 14C6.89543 14 6 13.1046 6 12ZM14 19C14 17.8954 14.8954 17 16 17C17.1046 17 18 17.8954 18 19C18 20.1046 17.1046 21 16 21C14.8954 21 14 20.1046 14 19ZM3 5L14 5M10 12L21 12M3 19L14 19M18 5L21 5M18 19L21 19M3 12L6 12"/>
</svg>