<svg xmlns="http://www.w3.org/2000/svg" viewBox="0 0 24 24" width="1em" height="1em">
    <path fill="none" stroke="currentColor" stroke-linecap="round" stroke-linejoin="round" stroke-width="2" d="M10 9C10 7.89543 10.8954 7 12 7C13.1046 7 14 7.89543 14 9C14 10.1046 13.1046 11 12 11C10.8954 11 10 10.1046 10 9ZM9 14C9 13 10 11 12 11C14 11 15 13 15 14C15 16 14 18 12 18C10 18 9 16 9 14ZM10 11L6 17L8 21M4 15L6 12L10 11M3 6L5 9L10 11M7 3L6 5L10 11M17 3L18 5L14 11M21 6L19 9L14 11M20 15L18 12L14 11M16 21L18 17L14 11"/>
</svg>