<svg viewBox="0 0 24 24" width="24" height="24" xmlns="http://www.w3.org/2000/svg"><g stroke-width="2" stroke="currentColor" fill="none" stroke-linecap="round" stroke-linejoin="round"><path d="M8 12C8 9.79086 9.79086 8 12 8C12.9832 8 13.8835 8.35471 14.58 8.94315C15.4485 9.67689 16 10.774 16 12C16 14.2091 14.2091 16 12 16C9.79086 16 8 14.2091 8 12ZM12 3L12 4M12 20L12 21M3 12L4 12M20 12L21 12M18.4003 5.67259L17.6892 6.37564M6.31084 17.6244L5.59969 18.3274M5.67259 5.59969L6.37564 6.31084M17.6244 17.6892L18.3274 18.4003" /></g></svg>