<svg xmlns="http://www.w3.org/2000/svg" viewBox="0 0 24 24" width="1em" height="1em">
    <path fill="none" stroke="currentColor" stroke-linecap="round" stroke-linejoin="round" stroke-width="2" d="M5 17C5 15.8954 5.89543 15 7 15C8.10457 15 9 15.8954 9 17C9 18.1046 8.10457 19 7 19C5.89543 19 5 18.1046 5 17ZM15 17C15 15.8954 15.8954 15 17 15C18.1046 15 19 15.8954 19 17C19 18.1046 18.1046 19 17 19C15.8954 19 15 18.1046 15 17ZM9 17L15 17M5 17L4 17C4 17 3 17 3 16L3 6C3 6 3 5 4 5L14 5L14 7L18 7L21 11L21 16C21 17 20 17 20 17L19 17M14 7L14 17M14 12L21 12"/>
</svg>