<svg xmlns="http://www.w3.org/2000/svg" viewBox="0 0 24 24" width="1em" height="1em">
    <path fill="none" stroke="currentColor" stroke-linecap="round" stroke-linejoin="round" stroke-width="2" d="M7 12C7 9.23858 9.23858 7 12 7C14.7614 7 17 9.23858 17 12C17 14.7614 14.7614 17 12 17C9.23858 17 7 14.7614 7 12ZM12 7L12 4M11 4L13 4M16.1675 8L18.2949 5.88478M17.5899 5.17564L19 6.59391M16.1675 16L18.2949 18.1152M17.5899 18.8244L19 17.4061M8 16L5.8726 18.1152M6.57767 18.8244L5.16752 17.4061M8 8L5.8726 5.88478M6.57767 5.17564L5.16752 6.59391M12 17L12 20M11 20L13 20M17 12L20 12M20 13L20 11M7 12L4 12M4 13L4 11"/>
</svg>