<svg xmlns="http://www.w3.org/2000/svg" viewBox="0 0 24 24" width="1em" height="1em">
    <path fill="none" stroke="currentColor" stroke-linecap="round" stroke-linejoin="round" stroke-width="2" d="M3 3L21 21M3 12L11.9855 12M19 12C20.1046 12 21 12.8954 21 14C21 14.7426 20.5953 15.3906 19.9944 15.7356M3 16L12 16M12 16C13.1046 16 14 16.8954 14 18C14 19.1046 13.1046 20 12 20C11.2585 20 10.6112 19.5964 10.2658 18.9969M3 8L8.02071 8M16 8C17.1046 8 18 7.10457 18 6C18 4.89543 17.1046 4 16 4C15.2585 4 14.6112 4.40358 14.2658 5.00307M12.0701 8L16 8M16.0832 12L19 12"/>
</svg>