<?xml version="1.0" encoding="UTF-8" standalone="no"?>
<!DOCTYPE svg PUBLIC "-//W3C//DTD SVG 1.1//EN" "http://www.w3.org/Graphics/SVG/1.1/DTD/svg11.dtd">
<!-- Created with Vectornator (http://vectornator.io/) -->
<svg stroke-miterlimit="10" style="fill-rule:nonzero;clip-rule:evenodd;stroke-linecap:round;stroke-linejoin:round;" version="1.1" viewBox="0 0 24 24" xml:space="preserve" xmlns="http://www.w3.org/2000/svg" xmlns:xlink="http://www.w3.org/1999/xlink">
<defs/>
<g id="Layer-1">
<path d="M18 4C20 4 20 6 20 6L20 18C20 18 20 20 18 20L8 20C6 20 6 18 6 18L6 6C6 6 6 4 8 4L18 4ZM4 8L8 8M4 12L8 12M4 16L8 16M12 16L16 16M12 10C12 8.89543 12.8954 8 14 8C15.1046 8 16 8.89543 16 10C16 11.1046 15.1046 12 14 12C12.8954 12 12 11.1046 12 10Z" fill="none" fill-rule="evenodd" opacity="1" stroke="#000000" stroke-linecap="round" stroke-linejoin="round" stroke-width="2"/>
</g>
</svg>
