<?xml version="1.0" encoding="UTF-8" standalone="no"?>
<!DOCTYPE svg PUBLIC "-//W3C//DTD SVG 1.1//EN" "http://www.w3.org/Graphics/SVG/1.1/DTD/svg11.dtd">
<!-- Created with Vectornator (http://vectornator.io/) -->
<svg height="24.0px" stroke-miterlimit="10" style="fill-rule:nonzero;clip-rule:evenodd;stroke-linecap:round;stroke-linejoin:round;" version="1.1" viewBox="0 0 24 24" width="24.0px" xml:space="preserve" xmlns="http://www.w3.org/2000/svg" xmlns:xlink="http://www.w3.org/1999/xlink">
<defs/>
<g id="Layer-1">
<path d="M3 3L21 21M17.4054 17.448C16.1215 19.0064 14.1768 20 12 20C8.13401 20 5 16.866 5 13C5 10.8283 5.98895 8.88759 7.54107 7.60365M10.9895 6.07239C11.3195 6.02469 11.6569 6 12 6C15.866 6 19 9.13401 19 13C19 13.3409 18.9756 13.6762 18.9285 14.004M8 19L6 21M18 21L16 19M4 6L5.13336 5.24443M20 6L17 4" fill="none" opacity="1" stroke="#000000" stroke-linecap="round" stroke-linejoin="round" stroke-width="2"/>
</g>
</svg>
