<?xml version="1.0" encoding="UTF-8" standalone="no"?>
<!DOCTYPE svg PUBLIC "-//W3C//DTD SVG 1.1//EN" "http://www.w3.org/Graphics/SVG/1.1/DTD/svg11.dtd">
<!-- Created with Vectornator (http://vectornator.io/) -->
<svg stroke-miterlimit="10" style="fill-rule:nonzero;clip-rule:evenodd;stroke-linecap:round;stroke-linejoin:round;" version="1.1" viewBox="0 0 24 24" xml:space="preserve" xmlns="http://www.w3.org/2000/svg" xmlns:xlink="http://www.w3.org/1999/xlink">
<defs/>
<g id="Layer-1">
<path d="M12 3L12 21M5 7C5 5 7 5 7 5L17 5C17 5 19 5 19 7L19 8C19 10 17 10 17 10L7 10C7 10 5 10 5 8L5 7ZM10 14C10 14 8 14 8 16L8 17C8 19 10 19 10 19L14 19C14 19 16 19 16 17L16 16C16 14 14 14 14 14L10 14Z" fill="none" fill-rule="evenodd" opacity="0.996124" stroke="#000000" stroke-linecap="round" stroke-linejoin="round" stroke-width="2"/>
</g>
</svg>
