<?xml version="1.0" encoding="UTF-8" standalone="no"?>
<!DOCTYPE svg PUBLIC "-//W3C//DTD SVG 1.1//EN" "http://www.w3.org/Graphics/SVG/1.1/DTD/svg11.dtd">
<!-- Created with Vectornator (http://vectornator.io/) -->
<svg stroke-miterlimit="10" style="fill-rule:nonzero;clip-rule:evenodd;stroke-linecap:round;stroke-linejoin:round;" version="1.1" viewBox="0 0 24 24" xml:space="preserve" xmlns="http://www.w3.org/2000/svg" xmlns:xlink="http://www.w3.org/1999/xlink">
<defs/>
<g id="Layer-1">
<path d="M3 12L21 12M10 7C10 7 10 5 8 5L7 5C5 5 5 7 5 7L5 17C5 17 5 19 7 19L8 19C10 19 10 17 10 17L10 7ZM16 8C14 8 14 10 14 10L14 14C14 14 14 16 16 16L17 16C19 16 19 14 19 14L19 10C19 10 19 8 17 8L16 8Z" fill="none" fill-rule="evenodd" opacity="0.998062" stroke="#000000" stroke-linecap="round" stroke-linejoin="round" stroke-width="2"/>
</g>
</svg>
