<?xml version="1.0" encoding="UTF-8" standalone="no"?>
<!DOCTYPE svg PUBLIC "-//W3C//DTD SVG 1.1//EN" "http://www.w3.org/Graphics/SVG/1.1/DTD/svg11.dtd">
<!-- Created with Vectornator (http://vectornator.io/) -->
<svg height="24.0px" stroke-miterlimit="10" style="fill-rule:nonzero;clip-rule:evenodd;stroke-linecap:round;stroke-linejoin:round;" version="1.1" viewBox="0 0 24 24" width="24.0px" xml:space="preserve" xmlns="http://www.w3.org/2000/svg" xmlns:xlink="http://www.w3.org/1999/xlink">
<defs/>
<g id="Layer-1">
<path d="M5 10L5 6C5 6 5 3 8 3L16 3C19 3 19 6 19 6L19 10M2 14C2 12.5 3.5 11 5 11C6.5 11 8 12 8 14L8 20C8 20 8 21 7 21L6 21C5 21 5 20 5 20L5 17C3.32295 17 2 15.5 2 14ZM22 14C22 12.5 20.5 11 19 11C17.5 11 16 12 16 14L16 20C16 20 16 21 17 21L18 21C19 21 19 20 19 20L19 17C20.6771 17 22 15.5 22 14ZM8 20L16 20M8 15L16 15" fill="none" opacity="1" stroke="#000000" stroke-linecap="round" stroke-linejoin="round" stroke-width="2"/>
</g>
</svg>
