<?xml version="1.0" encoding="UTF-8" standalone="no"?>
<!DOCTYPE svg PUBLIC "-//W3C//DTD SVG 1.1//EN" "http://www.w3.org/Graphics/SVG/1.1/DTD/svg11.dtd">
<!-- Created with Vectornator (http://vectornator.io/) -->
<svg stroke-miterlimit="10" style="fill-rule:nonzero;clip-rule:evenodd;stroke-linecap:round;stroke-linejoin:round;" version="1.1" viewBox="0 0 24 24" xml:space="preserve" xmlns="http://www.w3.org/2000/svg" xmlns:xlink="http://www.w3.org/1999/xlink">
<defs/>
<g id="Layer-1">
<path d="M5 6C3 6 3 8 3 8L3 12C3 12 3 14 5 14L19 14C21 14 21 12 21 12L21 8C21 8 21 6 19 6L5 6ZM8 5L8 6M16 5L16 6M8 14L8 20M16 14L16 20M5 14L13 6M11 14L19 6M16 14L21 9M3 11L8 6M7 20L9 20M15 20L17 20" fill="none" opacity="1" stroke="#000000" stroke-linecap="round" stroke-linejoin="round" stroke-width="2"/>
</g>
</svg>
