<?xml version="1.0" encoding="UTF-8" standalone="no"?>
<!DOCTYPE svg PUBLIC "-//W3C//DTD SVG 1.1//EN" "http://www.w3.org/Graphics/SVG/1.1/DTD/svg11.dtd">
<!-- Created with Vectornator (http://vectornator.io/) -->
<svg height="24.0px" stroke-miterlimit="10" style="fill-rule:nonzero;clip-rule:evenodd;stroke-linecap:round;stroke-linejoin:round;" version="1.1" viewBox="0 0 24 24" width="24.0px" xml:space="preserve" xmlns="http://www.w3.org/2000/svg" xmlns:xlink="http://www.w3.org/1999/xlink">
<defs/>
<g id="Layer-1">
<path d="M10 4.5C10 4.5 11 6.5 12 6.5C13 6.5 14 4.5 14 4.5L15 8.5C18 8.5 19 5.5 19 5.5C22 8.5 21 16.5 21 16.5C21 16.5 19.25 15.25 18 15.5C16.75 15.75 16 17.5 16 17.5C16 17.5 15 15 14 15.5C13 16 12 19.5 12 19.5C12 19.5 11 16 10 15.5C9 15 8 17.5 8 17.5C8 17.5 7.25 15.75 6 15.5C4.75 15.25 3 16.5 3 16.5C3 16.5 2 8.5 5 5.5C5 5.5 6 8.5 9 8.5L10 4.5Z" fill="none" opacity="1" stroke="#000000" stroke-linecap="butt" stroke-linejoin="round" stroke-width="2"/>
</g>
</svg>
