<?xml version="1.0" encoding="UTF-8" standalone="no"?>
<!DOCTYPE svg PUBLIC "-//W3C//DTD SVG 1.1//EN" "http://www.w3.org/Graphics/SVG/1.1/DTD/svg11.dtd">
<!-- Created with Vectornator (http://vectornator.io/) -->
<svg height="24.0px" stroke-miterlimit="10" style="fill-rule:nonzero;clip-rule:evenodd;stroke-linecap:round;stroke-linejoin:round;" version="1.1" viewBox="0 0 24 24" width="24.0px" xml:space="preserve" xmlns="http://www.w3.org/2000/svg" xmlns:xlink="http://www.w3.org/1999/xlink">
<defs/>
<g id="Layer-1">
<path d="M4 12L4 6C4 6 4 4 6 4L18 4C20 4 20 6 20 6L20 12M3 20L3 15C3 15 3 12 6 12L18 12C21 12 21 15 21 15L21 20M4 18L20 18M4 12L4 10C4 10 4 8 6 8L10 8C12 8 12 10 12 10L12 12L12 10C12 10 12 8 14 8L18 8C20 8 20 10 20 10L20 12" fill="none" opacity="1" stroke="#000000" stroke-linecap="round" stroke-linejoin="round" stroke-width="2"/>
</g>
</svg>
