<?xml version="1.0" encoding="UTF-8" standalone="no"?>
<!DOCTYPE svg PUBLIC "-//W3C//DTD SVG 1.1//EN" "http://www.w3.org/Graphics/SVG/1.1/DTD/svg11.dtd">
<!-- Created with Vectornator (http://vectornator.io/) -->
<svg height="24.0px" stroke-miterlimit="10" style="fill-rule:nonzero;clip-rule:evenodd;stroke-linecap:round;stroke-linejoin:round;" version="1.1" viewBox="0 0 24 24" width="24.0px" xml:space="preserve" xmlns="http://www.w3.org/2000/svg" xmlns:xlink="http://www.w3.org/1999/xlink">
<defs/>
<g id="Layer-1">
<path d="M3 3L21 21M8.94304 4.0928C9.28616 4.03182 9.63936 4 10 4C13.3137 4 16 6.68629 16 10C16 10.4097 15.9589 10.8098 15.8807 11.1965M14.1965 14.2883C13.1145 15.3472 11.6335 16 10 16C6.68629 16 4 13.3137 4 10C4 8.39035 4.63385 6.92874 5.66557 5.85116M5.00695 14.2166C4 14.7342 4 16 4 16L4 18C4 18 4 20 6 20L14 20C16 20 16 18 16 18L16 16M20.6587 16.1874C21 15.0022 21 14 21 14M14 20L16 20C17.1485 20 18.0332 19.6834 18.7147 19.1957M20 14C20 13.4477 20.4477 13 21 13C21.5523 13 22 13.4477 22 14C22 14.5523 21.5523 15 21 15C20.4477 15 20 14.5523 20 14Z" fill="none" opacity="1" stroke="#000000" stroke-linecap="round" stroke-linejoin="round" stroke-width="2"/>
</g>
</svg>
