<?xml version="1.0" encoding="UTF-8" standalone="no"?>
<!DOCTYPE svg PUBLIC "-//W3C//DTD SVG 1.1//EN" "http://www.w3.org/Graphics/SVG/1.1/DTD/svg11.dtd">
<!-- Created with Vectornator (http://vectornator.io/) -->
<svg height="24.0px" stroke-miterlimit="10" style="fill-rule:nonzero;clip-rule:evenodd;stroke-linecap:round;stroke-linejoin:round;" version="1.1" viewBox="0 0 24 24" width="24.0px" xml:space="preserve" xmlns="http://www.w3.org/2000/svg" xmlns:xlink="http://www.w3.org/1999/xlink">
<defs/>
<g id="Layer-1">
<path d="M6 5C6 5 6 3 8 3C10 3 10 5 10 5L10 8C10 8 10 10 8 10C6 10 6 8 6 8L6 5ZM14 16C14 16 14 14 16 14C18 14 18 16 18 16L18 19C18 19 18 21 16 21C14 21 14 19 14 19L14 16ZM14 3L16 3L16 10L14 10L18 10M6 14L8 14L8 21L6 21L10 21" fill="none" opacity="1" stroke="#000000" stroke-linecap="round" stroke-linejoin="round" stroke-width="2"/>
</g>
</svg>
