<?xml version="1.0" encoding="UTF-8" standalone="no"?>
<!DOCTYPE svg PUBLIC "-//W3C//DTD SVG 1.1//EN" "http://www.w3.org/Graphics/SVG/1.1/DTD/svg11.dtd">
<!-- Created with Vectornator (http://vectornator.io/) -->
<svg height="24.0px" stroke-miterlimit="10" style="fill-rule:nonzero;clip-rule:evenodd;stroke-linecap:round;stroke-linejoin:round;" version="1.1" viewBox="0 0 24 24" width="24.0px" xml:space="preserve" xmlns="http://www.w3.org/2000/svg" xmlns:xlink="http://www.w3.org/1999/xlink">
<defs/>
<g id="Layer-1">
<path d="M5 4.04607C4 4.04607 4 5.04607 4 5.04607L4 19.0461C4 19.0461 4 20.0461 5 20.0461L7 20.0461C8 20.0461 8 19.0461 8 19.0461L8 5.04607C8 5.04607 8 4.04607 7 4.04607L5 4.04607ZM10 4.04607C9 4.04607 9 5.04607 9 5.04607L9 19.0461C9 19.0461 9 20.0461 10 20.0461L12 20.0461C13 20.0461 13 19.0461 13 19.0461L13 5.04607C13 5.04607 13 4.04607 12 4.04607L10 4.04607ZM14.8347 4.34198C13.8479 4.50399 14.0099 5.49078 14.0099 5.49078L16.278 19.3058C16.278 19.3058 16.44 20.2926 17.4268 20.1306L19.4004 19.8066C20.3871 19.6446 20.2251 18.6578 20.2251 18.6578L17.9571 4.84275C17.9571 4.84275 17.7951 3.85596 16.8083 4.01797L14.8347 4.34198ZM10 16L12 16M5 9L7 9M10 8L12 8M16.6033 15.2064L18.5757 14.8751" fill="none" opacity="1" stroke="#000000" stroke-linecap="butt" stroke-linejoin="round" stroke-width="2"/>
</g>
</svg>
