<?xml version="1.0" encoding="UTF-8" standalone="no"?>
<!DOCTYPE svg PUBLIC "-//W3C//DTD SVG 1.1//EN" "http://www.w3.org/Graphics/SVG/1.1/DTD/svg11.dtd">
<!-- Created with Vectornator (http://vectornator.io/) -->
<svg height="24.0px" stroke-miterlimit="10" style="fill-rule:nonzero;clip-rule:evenodd;stroke-linecap:round;stroke-linejoin:round;" version="1.1" viewBox="0 0 24 24" width="24.0px" xml:space="preserve" xmlns="http://www.w3.org/2000/svg" xmlns:xlink="http://www.w3.org/1999/xlink">
<defs/>
<g id="Layer-1">
<path d="M12 5C12 5 12 3 10 3C8 3 8 5 8 5C8 5 6 5 6 7C6 7 3 8 3 12C3 15 5 16 5 16C5 19 8 19 8 19C8 19 8 21 10 21C12 21 12 19 12 19L12 5M13 17L17 17L19 19M18.5 19.5C18.5 19.2239 18.7239 19 19 19C19.2761 19 19.5 19.2239 19.5 19.5C19.5 19.7761 19.2761 20 19 20C18.7239 20 18.5 19.7761 18.5 19.5ZM20 8C20 7.72386 20.2239 7.5 20.5 7.5C20.7761 7.5 21 7.72386 21 8C21 8.27614 20.7761 8.5 20.5 8.5C20.2239 8.5 20 8.27614 20 8ZM17.5 4.5C17.5 4.22386 17.7239 4 18 4C18.2761 4 18.5 4.22386 18.5 4.5C18.5 4.77614 18.2761 5 18 5C17.7239 5 17.5 4.77614 17.5 4.5ZM15 13C15 12.7239 15.2239 12.5 15.5 12.5C15.7761 12.5 16 12.7239 16 13C16 13.2761 15.7761 13.5 15.5 13.5C15.2239 13.5 15 13.2761 15 13ZM13 8L20 8M16 8C18 8 18 5 18 5M13 13L15 13" fill="none" opacity="1" stroke="#000000" stroke-linecap="round" stroke-linejoin="round" stroke-width="2"/>
</g>
</svg>
