<?xml version="1.0" encoding="UTF-8" standalone="no"?>
<!DOCTYPE svg PUBLIC "-//W3C//DTD SVG 1.1//EN" "http://www.w3.org/Graphics/SVG/1.1/DTD/svg11.dtd">
<!-- Created with Vectornator (http://vectornator.io/) -->
<svg height="24.0px" stroke-miterlimit="10" style="fill-rule:nonzero;clip-rule:evenodd;stroke-linecap:round;stroke-linejoin:round;" version="1.1" viewBox="0 0 24 24" width="24.0px" xml:space="preserve" xmlns="http://www.w3.org/2000/svg" xmlns:xlink="http://www.w3.org/1999/xlink">
<defs/>
<g id="Layer-1">
<path d="M12 5C12 5 12 3 10 3C8 3 8 5 8 5C8 5 6 5 6 7C6 7 3 8 3 12C3 15 5 16 5 16C5 19 8 19 8 19C8 19 8 21 10 21C12 21 12 19 12 19L12 5M12 5C12 5 12 3 14 3C16 3 16 5 16 5C16 5 18 5 18 7C18 7 21 8 21 12C21 15 19 16 19 16C19 19 16 19 16 19C16 19 16 21 14 21C12 21 12 19 12 19L12 5" fill="none" opacity="1" stroke="#000000" stroke-linecap="butt" stroke-linejoin="round" stroke-width="2"/>
</g>
</svg>
