<?xml version="1.0" encoding="UTF-8" standalone="no"?>
<!DOCTYPE svg PUBLIC "-//W3C//DTD SVG 1.1//EN" "http://www.w3.org/Graphics/SVG/1.1/DTD/svg11.dtd">
<!-- Created with Vectornator (http://vectornator.io/) -->
<svg height="24.0px" stroke-miterlimit="10" style="fill-rule:nonzero;clip-rule:evenodd;stroke-linecap:round;stroke-linejoin:round;" version="1.1" viewBox="0 0 24 24" width="24.0px" xml:space="preserve" xmlns="http://www.w3.org/2000/svg" xmlns:xlink="http://www.w3.org/1999/xlink">
<defs/>
<g id="Layer-1">
<path d="M8 16L16 8M12 7L7 12M17 12L12 17M7 9L7 15C7 15 7 17 9 17L15 17C17 17 17 15 17 15L17 9C17 9 17 7 15 7L9 7C7 7 7 9 7 9ZM7.05113 11L6 11C4 11 4 9 4 9L4 6C4 6 4 4 6 4L10 4C12 4 12 6 12 6L12 7.00051M17.0794 13L18 13C20 13 20 15 20 15L20 18C20 18 20 20 18 20L14 20C12 20 12 18 12 18L12 17.0288" fill="none" opacity="1" stroke="#000000" stroke-linecap="round" stroke-linejoin="round" stroke-width="2"/>
</g>
</svg>
