<?xml version="1.0" encoding="UTF-8" standalone="no"?>
<!DOCTYPE svg PUBLIC "-//W3C//DTD SVG 1.1//EN" "http://www.w3.org/Graphics/SVG/1.1/DTD/svg11.dtd">
<!-- Created with Vectornator (http://vectornator.io/) -->
<svg stroke-miterlimit="10" style="fill-rule:nonzero;clip-rule:evenodd;stroke-linecap:round;stroke-linejoin:round;" version="1.1" viewBox="0 0 24 24" xml:space="preserve" xmlns="http://www.w3.org/2000/svg" xmlns:xlink="http://www.w3.org/1999/xlink">
<defs/>
<g id="Layer-1">
<path d="M4 20L20 20L20 13C20 13 20 9 16 9L8 9C4 9 4 13 4 13L4 20ZM4 13C5.11803 13 6 15 8 15C10 15 10 13 12 13C14 13 14 15 16 15C18 15 18.882 13 20 13M12 9C11 9 10 8.25 10 7C10 5.75 12 4 12 4C12 4 14 5.75 14 7C14 8.25 13 9 12 9ZM2 20L22 20" fill="none" opacity="1" stroke="#000000" stroke-linecap="round" stroke-linejoin="round" stroke-width="2"/>
</g>
</svg>
