<?xml version="1.0" encoding="UTF-8" standalone="no"?>
<!DOCTYPE svg PUBLIC "-//W3C//DTD SVG 1.1//EN" "http://www.w3.org/Graphics/SVG/1.1/DTD/svg11.dtd">
<!-- Created with Vectornator (http://vectornator.io/) -->
<svg height="24.0px" stroke-miterlimit="10" style="fill-rule:nonzero;clip-rule:evenodd;stroke-linecap:round;stroke-linejoin:round;" version="1.1" viewBox="0 0 24 24" width="24.0px" xml:space="preserve" xmlns="http://www.w3.org/2000/svg" xmlns:xlink="http://www.w3.org/1999/xlink">
<defs/>
<g id="Layer-1">
<path d="M3 3L21 21M13.8208 14.2131C13.3649 14.6975 12.7178 15 12 15C10.6193 15 9.5 13.8807 9.5 12.5C9.5 11.7718 9.81133 11.1163 10.3082 10.6594M7 7L5 7C3 7 3 9 3 9L3 16C3 16 3 19 6 19L19 19M21 16L21 9C21 9 21 7 19 7L17 7C16 7 15 5 14 5L10 5" fill="none" opacity="1" stroke="#000000" stroke-linecap="round" stroke-linejoin="round" stroke-width="2"/>
</g>
</svg>
