<?xml version="1.0" encoding="UTF-8" standalone="no"?>
<!DOCTYPE svg PUBLIC "-//W3C//DTD SVG 1.1//EN" "http://www.w3.org/Graphics/SVG/1.1/DTD/svg11.dtd">
<!-- Created with Vectornator (http://vectornator.io/) -->
<svg height="24.0px" stroke-miterlimit="10" style="fill-rule:nonzero;clip-rule:evenodd;stroke-linecap:round;stroke-linejoin:round;" version="1.1" viewBox="0 0 24 24" width="24.0px" xml:space="preserve" xmlns="http://www.w3.org/2000/svg" xmlns:xlink="http://www.w3.org/1999/xlink">
<defs/>
<g id="Layer-1">
<path d="M10.5858 7.75736C12.7071 5.63604 14.8284 7.75736 14.8284 7.75736L16.2426 9.17157C16.2426 9.17157 18.364 11.2929 16.2426 13.4142L13.4142 16.2426C11.2929 18.364 9.17157 16.2426 9.17157 16.2426L7.75736 14.8284C7.75736 14.8284 5.63604 12.7071 7.75736 10.5858L10.5858 7.75736ZM14.1213 7.05025L15.5355 2.80761L21.1924 8.46447L16.9497 9.87868M9.87868 16.9497L8.46447 21.1924L2.80761 15.5355L7.05025 14.1213M7 14L15 14M16 10L9 10" fill="none" opacity="1" stroke="#000000" stroke-linecap="round" stroke-linejoin="round" stroke-width="2"/>
</g>
</svg>
