<?xml version="1.0" encoding="UTF-8" standalone="no"?>
<!DOCTYPE svg PUBLIC "-//W3C//DTD SVG 1.1//EN" "http://www.w3.org/Graphics/SVG/1.1/DTD/svg11.dtd">
<!-- Created with Vectornator (http://vectornator.io/) -->
<svg height="24.0px" stroke-miterlimit="10" style="fill-rule:nonzero;clip-rule:evenodd;stroke-linecap:round;stroke-linejoin:round;" version="1.1" viewBox="0 0 24 24" width="24.0px" xml:space="preserve" xmlns="http://www.w3.org/2000/svg" xmlns:xlink="http://www.w3.org/1999/xlink">
<defs/>
<g id="Layer-1">
<path d="M4 4L6 4L8 14L19 13L20 7M7 19C7 18.4477 7.44772 18 8 18C8.55228 18 9 18.4477 9 19C9 19.5523 8.55228 20 8 20C7.44772 20 7 19.5523 7 19ZM16 19C16 18.4477 16.4477 18 17 18C17.5523 18 18 18.4477 18 19C18 19.5523 17.5523 20 17 20C16.4477 20 16 19.5523 16 19ZM8 14L9 19M9 18L17 18M10.5 6L12.5 8L16.5 4" fill="none" opacity="1" stroke="#000000" stroke-linecap="round" stroke-linejoin="round" stroke-width="2"/>
</g>
</svg>
