<?xml version="1.0" encoding="UTF-8" standalone="no"?>
<!DOCTYPE svg PUBLIC "-//W3C//DTD SVG 1.1//EN" "http://www.w3.org/Graphics/SVG/1.1/DTD/svg11.dtd">
<!-- Created with Vectornator (http://vectornator.io/) -->
<svg height="24.0px" stroke-miterlimit="10" style="fill-rule:nonzero;clip-rule:evenodd;stroke-linecap:round;stroke-linejoin:round;" version="1.1" viewBox="0 0 24 24" width="24.0px" xml:space="preserve" xmlns="http://www.w3.org/2000/svg" xmlns:xlink="http://www.w3.org/1999/xlink">
<defs/>
<g id="Layer-1">
<path d="M5 19C3 19 3 17 3 17L3 7C3 7 3 5 5 5L19 5C21 5 21 7 21 7L21 17C21 17 21 19 19 19L15 19M7 14.5C7 13.1193 8.11929 12 9.5 12C10.8807 12 12 13.1193 12 14.5C12 15.8807 10.8807 17 9.5 17C8.11929 17 7 15.8807 7 14.5ZM8 17L7 21L9.5 20L12 21L11 17M7 9L17 9M17 12L15 12M17 15L16 15" fill="none" opacity="1" stroke="#000000" stroke-linecap="round" stroke-linejoin="round" stroke-width="2"/>
</g>
</svg>
