<?xml version="1.0" encoding="UTF-8" standalone="no"?>
<!DOCTYPE svg PUBLIC "-//W3C//DTD SVG 1.1//EN" "http://www.w3.org/Graphics/SVG/1.1/DTD/svg11.dtd">
<!-- Created with Vectornator (http://vectornator.io/) -->
<svg stroke-miterlimit="10" style="fill-rule:nonzero;clip-rule:evenodd;stroke-linecap:round;stroke-linejoin:round;" version="1.1" viewBox="0 0 24 24" xml:space="preserve" xmlns="http://www.w3.org/2000/svg" xmlns:xlink="http://www.w3.org/1999/xlink">
<defs/>
<g id="Layer-1">
<path d="M9 5L7 5C5 5 5 7 5 7L5 19C5 19 5 21 7 21L17 21C19 21 19 19 19 19L19 7C19 7 19 5 17 5L15 5M11 3C11 3 9 3 9 5C9 7 11 7 11 7L13 7C13 7 15 7 15 5C15 3 13 3 13 3L11 3ZM9 14L15 14" fill="none" opacity="0.998062" stroke="#000000" stroke-linecap="round" stroke-linejoin="round" stroke-width="2"/>
</g>
</svg>
