<?xml version="1.0" encoding="UTF-8" standalone="no"?>
<!DOCTYPE svg PUBLIC "-//W3C//DTD SVG 1.1//EN" "http://www.w3.org/Graphics/SVG/1.1/DTD/svg11.dtd">
<!-- Created with Vectornator (http://vectornator.io/) -->
<svg height="24.0px" stroke-miterlimit="10" style="fill-rule:nonzero;clip-rule:evenodd;stroke-linecap:round;stroke-linejoin:round;" version="1.1" viewBox="0 0 24 24" width="24.0px" xml:space="preserve" xmlns="http://www.w3.org/2000/svg" xmlns:xlink="http://www.w3.org/1999/xlink">
<defs/>
<g id="Layer-1">
<path d="M4 5.5C4 4.11929 7.58172 3 12 3C16.4183 3 20 4.11929 20 5.5C20 6.88071 16.4183 8 12 8C7.58172 8 4 6.88071 4 5.5ZM20 6C20 6 20 17.1193 20 18.5C20 19.8807 16.4183 21 12 21C7.58172 21 4 19.8807 4 18.5C4 17.1193 4 6 4 6M20 12C20 13.3807 16.4183 14.5 12 14.5C7.58172 14.5 4 13.3807 4 12" fill="none" opacity="1" stroke="#000000" stroke-linecap="round" stroke-linejoin="round" stroke-width="2"/>
</g>
</svg>
