<?xml version="1.0" encoding="UTF-8" standalone="no"?>
<!DOCTYPE svg PUBLIC "-//W3C//DTD SVG 1.1//EN" "http://www.w3.org/Graphics/SVG/1.1/DTD/svg11.dtd">
<!-- Created with Vectornator (http://vectornator.io/) -->
<svg height="24.0px" stroke-miterlimit="10" style="fill-rule:nonzero;clip-rule:evenodd;stroke-linecap:round;stroke-linejoin:round;" version="1.1" viewBox="0 0 24 24" width="24.0px" xml:space="preserve" xmlns="http://www.w3.org/2000/svg" xmlns:xlink="http://www.w3.org/1999/xlink">
<defs/>
<g id="Layer-1">
<path d="M6 4C4 4 4 6 4 6L4 7C4 7 4 9 6 9L18 9C20 9 20 7 20 7L20 6C20 6 20 4 18 4L6 4ZM12 15C10 15 10 17 10 17L10 18C10 18 10 20 12 20L18 20C20 20 20 18 20 18L20 17C20 17 20 15 18 15L12 15ZM7 9.5L7 15.5C7 17.5 9 17.5 9 17.5L10 17.5" fill="none" opacity="1" stroke="#000000" stroke-linecap="round" stroke-linejoin="round" stroke-width="2"/>
</g>
</svg>
