<?xml version="1.0" encoding="UTF-8" standalone="no"?>
<!DOCTYPE svg PUBLIC "-//W3C//DTD SVG 1.1//EN" "http://www.w3.org/Graphics/SVG/1.1/DTD/svg11.dtd">
<!-- Created with Vectornator (http://vectornator.io/) -->
<svg stroke-miterlimit="10" style="fill-rule:nonzero;clip-rule:evenodd;stroke-linecap:round;stroke-linejoin:round;" version="1.1" viewBox="0 0 24 24" xml:space="preserve" xmlns="http://www.w3.org/2000/svg" xmlns:xlink="http://www.w3.org/1999/xlink">
<defs/>
<g id="Layer-1">
<path d="M4 6C4 6 4 4 6 4L16 4L20 8L20 18C20 18 20 20 18 20L6 20C4 20 4 18 4 18L4 6ZM15 4L15 8C15 8 15 9 14 9L9 9C8 9 8 8 8 8L8 4M10.5 14.5C10.5 13.6716 11.1716 13 12 13C12.8284 13 13.5 13.6716 13.5 14.5C13.5 15.3284 12.8284 16 12 16C11.1716 16 10.5 15.3284 10.5 14.5Z" fill="none" fill-rule="evenodd" opacity="1" stroke="#000000" stroke-linecap="round" stroke-linejoin="round" stroke-width="2"/>
</g>
</svg>
