<?xml version="1.0" encoding="UTF-8" standalone="no"?>
<!DOCTYPE svg PUBLIC "-//W3C//DTD SVG 1.1//EN" "http://www.w3.org/Graphics/SVG/1.1/DTD/svg11.dtd">
<!-- Created with Vectornator (http://vectornator.io/) -->
<svg stroke-miterlimit="10" style="fill-rule:nonzero;clip-rule:evenodd;stroke-linecap:round;stroke-linejoin:round;" version="1.1" viewBox="0 0 24 24" xml:space="preserve" xmlns="http://www.w3.org/2000/svg" xmlns:xlink="http://www.w3.org/1999/xlink">
<defs/>
<g id="Layer-1">
<path d="M3 12C3 7.02944 7.02944 3 12 3C16.9706 3 21 7.02944 21 12C21 16.9706 16.9706 21 12 21C7.02944 21 3 16.9706 3 12ZM15 9L15 10M9 10L9 9M8.5 9.5C8.5 9.22386 8.72386 9 9 9C9.27614 9 9.5 9.22386 9.5 9.5C9.5 9.77614 9.27614 10 9 10C8.72386 10 8.5 9.77614 8.5 9.5ZM14.5 9.5C14.5 9.22386 14.7239 9 15 9C15.2761 9 15.5 9.22386 15.5 9.5C15.5 9.77614 15.2761 10 15 10C14.7239 10 14.5 9.77614 14.5 9.5ZM9 15L15 15" fill="none" fill-rule="evenodd" opacity="1" stroke="#000000" stroke-linecap="round" stroke-linejoin="round" stroke-width="2"/>
</g>
</svg>
