<?xml version="1.0" encoding="UTF-8" standalone="no"?>
<!DOCTYPE svg PUBLIC "-//W3C//DTD SVG 1.1//EN" "http://www.w3.org/Graphics/SVG/1.1/DTD/svg11.dtd">
<!-- Created with Vectornator (http://vectornator.io/) -->
<svg stroke-miterlimit="10" style="fill-rule:nonzero;clip-rule:evenodd;stroke-linecap:round;stroke-linejoin:round;" version="1.1" viewBox="0 0 24 24" xml:space="preserve" xmlns="http://www.w3.org/2000/svg" xmlns:xlink="http://www.w3.org/1999/xlink">
<defs/>
<g id="Layer-1">
<path d="M3 3L21 21M7.29854 7.37352C4.40586 9.16759 3 12 3 12C3 12 6.00002 17.9846 12 18C14.7979 18.0072 16.6457 16.6728 16.6457 16.6728M10.5132 10.669C10.0665 10.9397 10 12 10 12C10 12 10 14.0021 12 14C12.7875 13.9992 13.3628 13.4577 13.3628 13.4577M11.0083 6.05761C11.4907 5.96848 12 6 12 6C18 6 21 12 21 12C21 12 20.939 12.2946 19.538 14.1846" fill="none" fill-rule="evenodd" opacity="1" stroke="#000000" stroke-linecap="round" stroke-linejoin="round" stroke-width="2"/>
</g>
</svg>
