<?xml version="1.0" encoding="UTF-8" standalone="no"?>
<!DOCTYPE svg PUBLIC "-//W3C//DTD SVG 1.1//EN" "http://www.w3.org/Graphics/SVG/1.1/DTD/svg11.dtd">
<!-- Created with Vectornator (http://vectornator.io/) -->
<svg height="24.0px" stroke-miterlimit="10" style="fill-rule:nonzero;clip-rule:evenodd;stroke-linecap:round;stroke-linejoin:round;" version="1.1" viewBox="0 0 24 24" width="24.0px" xml:space="preserve" xmlns="http://www.w3.org/2000/svg" xmlns:xlink="http://www.w3.org/1999/xlink">
<defs/>
<g id="Layer-1">
<path d="M3 3L21 21M12.6722 8.64282C12.8533 8.2388 13 7.76614 13 7C13 5 11 4 11 4C11 4.97127 10.8113 5.75387 10.5073 6.42842M17.9243 14.028C17.5596 11.7798 16 11 16 11C16 11.2663 15.9291 11.5327 15.8061 11.7801M8.72536 8.87786C7.40495 10.3249 6 11.8195 6 15C6 16 7 21 12 21C14.9811 21 16.5403 19.2226 17.3134 17.5753" fill="none" opacity="1" stroke="#000000" stroke-linecap="round" stroke-linejoin="round" stroke-width="2"/>
</g>
</svg>
