<?xml version="1.0" encoding="UTF-8" standalone="no"?>
<!DOCTYPE svg PUBLIC "-//W3C//DTD SVG 1.1//EN" "http://www.w3.org/Graphics/SVG/1.1/DTD/svg11.dtd">
<!-- Created with Vectornator (http://vectornator.io/) -->
<svg stroke-miterlimit="10" style="fill-rule:nonzero;clip-rule:evenodd;stroke-linecap:round;stroke-linejoin:round;" version="1.1" viewBox="0 0 24 24" xml:space="preserve" xmlns="http://www.w3.org/2000/svg" xmlns:xlink="http://www.w3.org/1999/xlink">
<defs/>
<g id="Layer-1">
<path d="M9 4C7 4 7 6 7 6L7 14C7 14 7 16 9 16L19 16C21 16 21 14 21 14L21 8C21 8 21 6 19 6L15 6L13 4L9 4ZM18 17L18 18C18 18 18 20 16 20C12.9586 20 8.04138 20 5 20C3 20 3 18 3 18C3 18 3 12 3 10C3 8 5 8 5 8L6 8" fill="none" opacity="1" stroke="#000000" stroke-linecap="round" stroke-linejoin="round" stroke-width="2"/>
</g>
</svg>
