<?xml version="1.0" encoding="UTF-8" standalone="no"?>
<!DOCTYPE svg PUBLIC "-//W3C//DTD SVG 1.1//EN" "http://www.w3.org/Graphics/SVG/1.1/DTD/svg11.dtd">
<!-- Created with Vectornator (http://vectornator.io/) -->
<svg stroke-miterlimit="10" style="fill-rule:nonzero;clip-rule:evenodd;stroke-linecap:round;stroke-linejoin:round;" version="1.1" viewBox="0 0 24 24" xml:space="preserve" xmlns="http://www.w3.org/2000/svg" xmlns:xlink="http://www.w3.org/1999/xlink">
<defs/>
<g id="Layer-1">
<path d="M5 11L5 19C5 19 5 21 7 21L17 21C19 21 19 19 19 19L19 11M4 7C3 7 3 8 3 8L3 10C3 10 3 11 4 11L20 11C21 11 21 10 21 10L21 8C21 8 21 7 20 7L4 7ZM12 7C12 7 11 3 8 3C6 3 6 6 7 7M12 7C12 7 13 3 16 3C18 3 18 6 17 7M12 7L12 21" fill="none" fill-rule="evenodd" opacity="1" stroke="#000000" stroke-linecap="round" stroke-linejoin="round" stroke-width="2"/>
</g>
</svg>
