<?xml version="1.0" encoding="UTF-8" standalone="no"?>
<!DOCTYPE svg PUBLIC "-//W3C//DTD SVG 1.1//EN" "http://www.w3.org/Graphics/SVG/1.1/DTD/svg11.dtd">
<!-- Created with Vectornator (http://vectornator.io/) -->
<svg stroke-miterlimit="10" style="fill-rule:nonzero;clip-rule:evenodd;stroke-linecap:round;stroke-linejoin:round;" version="1.1" viewBox="0 0 24 24" xml:space="preserve" xmlns="http://www.w3.org/2000/svg" xmlns:xlink="http://www.w3.org/1999/xlink">
<defs/>
<g id="Layer-1">
<path d="M5 19C5 17.8954 5.89543 17 7 17C8.10457 17 9 17.8954 9 19C9 20.1046 8.10457 21 7 21C5.89543 21 5 20.1046 5 19ZM5 5C5 3.89543 5.89543 3 7 3C8.10457 3 9 3.89543 9 5C9 6.10457 8.10457 7 7 7C5.89543 7 5 6.10457 5 5ZM15 5C15 3.89543 15.8954 3 17 3C18.1046 3 19 3.89543 19 5C19 6.10457 18.1046 7 17 7C15.8954 7 15 6.10457 15 5ZM7 7L7 17M7 15C7 15 7 12 10 12L14 12C17 12 17 9 17 9L17 7" fill="none" fill-rule="evenodd" opacity="1" stroke="#000000" stroke-linecap="round" stroke-linejoin="round" stroke-width="2"/>
</g>
</svg>
