<?xml version="1.0" encoding="UTF-8" standalone="no"?>
<!DOCTYPE svg PUBLIC "-//W3C//DTD SVG 1.1//EN" "http://www.w3.org/Graphics/SVG/1.1/DTD/svg11.dtd">
<!-- Created with Vectornator (http://vectornator.io/) -->
<svg stroke-miterlimit="10" style="fill-rule:nonzero;clip-rule:evenodd;stroke-linecap:round;stroke-linejoin:round;" version="1.1" viewBox="0 0 24 24" xml:space="preserve" xmlns="http://www.w3.org/2000/svg" xmlns:xlink="http://www.w3.org/1999/xlink">
<defs/>
<g id="Layer-1">
<path d="M5 5C5 3.89543 5.89543 3 7 3C8.10457 3 9 3.89543 9 5C9 6.10457 8.10457 7 7 7C5.89543 7 5 6.10457 5 5ZM5 19C5 17.8954 5.89543 17 7 17C8.10457 17 9 17.8954 9 19C9 20.1046 8.10457 21 7 21C5.89543 21 5 20.1046 5 19ZM15 19C15 17.8954 15.8954 17 17 17C18.1046 17 19 17.8954 19 19C19 20.1046 18.1046 21 17 21C15.8954 21 15 20.1046 15 19ZM7 7L7 17M17 17L17 8C17 8 17 5 14 5M14 7L14 3L12 5L14 7Z" fill="none" fill-rule="evenodd" opacity="1" stroke="#000000" stroke-linecap="round" stroke-linejoin="round" stroke-width="2"/>
</g>
</svg>
