<?xml version="1.0" encoding="UTF-8" standalone="no"?>
<!DOCTYPE svg PUBLIC "-//W3C//DTD SVG 1.1//EN" "http://www.w3.org/Graphics/SVG/1.1/DTD/svg11.dtd">
<!-- Created with Vectornator (http://vectornator.io/) -->
<svg stroke-miterlimit="10" style="fill-rule:nonzero;clip-rule:evenodd;stroke-linecap:round;stroke-linejoin:round;" version="1.1" viewBox="0 0 24 24" xml:space="preserve" xmlns="http://www.w3.org/2000/svg" xmlns:xlink="http://www.w3.org/1999/xlink">
<defs/>
<g id="Layer-1">
<path d="M5 11.5C5 11.5 3 11.5 3 13.5C3 15.5 5 15.5 5 15.5L19 15.5C19 15.5 21 15.5 21 13.5C21 11.5 19 11.5 19 11.5L5 11.5ZM4 15.5L4 17.5C4 17.5 4 19.5 6 19.5L18 19.5C20 19.5 20 17.5 20 17.5L20 15.5M4 11L4 9.5C4 9.5 4 4.5 11 4.5L13 4.5C20 4.5 20 9.5 20 9.5L20 11M9 8.5L9 8.5M12 7.5L12 7.5M15 8.5L15 8.5" fill="none" fill-rule="evenodd" opacity="1" stroke="#000000" stroke-linecap="round" stroke-linejoin="round" stroke-width="2"/>
</g>
</svg>
