<?xml version="1.0" encoding="UTF-8" standalone="no"?>
<!DOCTYPE svg PUBLIC "-//W3C//DTD SVG 1.1//EN" "http://www.w3.org/Graphics/SVG/1.1/DTD/svg11.dtd">
<!-- Created with Vectornator (http://vectornator.io/) -->
<svg height="24.0px" stroke-miterlimit="10" style="fill-rule:nonzero;clip-rule:evenodd;stroke-linecap:round;stroke-linejoin:round;" version="1.1" viewBox="0 0 24 24" width="24.0px" xml:space="preserve" xmlns="http://www.w3.org/2000/svg" xmlns:xlink="http://www.w3.org/1999/xlink">
<defs/>
<g id="Layer-1">
<path d="M6 17C2 12 4 11 4 11C5.1767 10.2155 6 11 6 11L8 13L8 4C8 2 11 2 11 4L11 12L11 10C11 8 14 8 14 10L14 12L14 11C14 9 17 9 17 11L17 12L17 12C17 10 20 10 20 12L20 16C20 16 20 21 15 21L12 21C9 21 7.7669 19.2086 6 17ZM15 5L16 5M3 5L4 5M4 2L5 3M14 3L15 2" fill="none" opacity="1" stroke="#000000" stroke-linecap="round" stroke-linejoin="round" stroke-width="2"/>
</g>
</svg>
