<?xml version="1.0" encoding="UTF-8" standalone="no"?>
<!DOCTYPE svg PUBLIC "-//W3C//DTD SVG 1.1//EN" "http://www.w3.org/Graphics/SVG/1.1/DTD/svg11.dtd">
<!-- Created with Vectornator (http://vectornator.io/) -->
<svg stroke-miterlimit="10" style="fill-rule:nonzero;clip-rule:evenodd;stroke-linecap:round;stroke-linejoin:round;" version="1.1" viewBox="0 0 24 24" xml:space="preserve" xmlns="http://www.w3.org/2000/svg" xmlns:xlink="http://www.w3.org/1999/xlink">
<defs/>
<g id="Layer-1">
<path d="M6 18C2 13 4 12 4 12C5.1767 11.2155 6 12 6 12L8 14L8 4C8 2 11 2 11 4L11 13L11 9C11 7 14 7 14 9L14 13L14 10C14 8 17 8 17 10L17 13L17 12C17 10 20 10 20 12L20 17C20 17 20 22 15 22L12 22C9 22 7.7669 20.2086 6 18Z" fill="none" opacity="1" stroke="#000000" stroke-linecap="butt" stroke-linejoin="round" stroke-width="2"/>
</g>
</svg>
