<?xml version="1.0" encoding="UTF-8" standalone="no"?>
<!DOCTYPE svg PUBLIC "-//W3C//DTD SVG 1.1//EN" "http://www.w3.org/Graphics/SVG/1.1/DTD/svg11.dtd">
<!-- Created with Vectornator (http://vectornator.io/) -->
<svg height="24.0px" stroke-miterlimit="10" style="fill-rule:nonzero;clip-rule:evenodd;stroke-linecap:round;stroke-linejoin:round;" version="1.1" viewBox="0 0 24 24" width="24.0px" xml:space="preserve" xmlns="http://www.w3.org/2000/svg" xmlns:xlink="http://www.w3.org/1999/xlink">
<defs/>
<g id="Layer-1">
<path d="M4 12L6 12C8 12 8 14 8 14L8 17C8 17 8 19 6 19C4 19 4 17 4 17L4 11C4 11 4 3 12 3C20 3 20 11 20 11L20 17C20 17 20 19 18 19C16 19 16 17 16 17L16 14C16 14 16 12 18 12L20 12M13 22L15 22C20 22 20 17 20 17" fill="none" opacity="1" stroke="#000000" stroke-linecap="round" stroke-linejoin="round" stroke-width="2"/>
</g>
</svg>
