<?xml version="1.0" encoding="UTF-8" standalone="no"?>
<!DOCTYPE svg PUBLIC "-//W3C//DTD SVG 1.1//EN" "http://www.w3.org/Graphics/SVG/1.1/DTD/svg11.dtd">
<!-- Created with Vectornator (http://vectornator.io/) -->
<svg height="24.0px" stroke-miterlimit="10" style="fill-rule:nonzero;clip-rule:evenodd;stroke-linecap:round;stroke-linejoin:round;" version="1.1" viewBox="0 0 24 24" width="24.0px" xml:space="preserve" xmlns="http://www.w3.org/2000/svg" xmlns:xlink="http://www.w3.org/1999/xlink">
<defs/>
<g id="Layer-1">
<path d="M3 3L21 21M18 13L20 13M19.2042 19.6543C18.918 19.8601 18.529 20 18 20C16 20 16 18 16 18L16 16M9.46793 4.31356C10.2074 4.11354 11.0469 4 12 4C20 4 20 12 20 12L20 15M4 13L6 13C8 13 8 15 8 15L8 18C8 18 8 20 6 20C4 20 4 18 4 18L4 12C4 12 4 8.64026 6.17727 6.27534" fill="none" opacity="1" stroke="#000000" stroke-linecap="round" stroke-linejoin="round" stroke-width="2"/>
</g>
</svg>
