<?xml version="1.0" encoding="UTF-8" standalone="no"?>
<!DOCTYPE svg PUBLIC "-//W3C//DTD SVG 1.1//EN" "http://www.w3.org/Graphics/SVG/1.1/DTD/svg11.dtd">
<!-- Created with Vectornator (http://vectornator.io/) -->
<svg height="24.0px" stroke-miterlimit="10" style="fill-rule:nonzero;clip-rule:evenodd;stroke-linecap:round;stroke-linejoin:round;" version="1.1" viewBox="0 0 24 24" width="24.0px" xml:space="preserve" xmlns="http://www.w3.org/2000/svg" xmlns:xlink="http://www.w3.org/1999/xlink">
<defs/>
<g id="Layer-1">
<path d="M3 3L21 21M9.45217 9.89217C9.31638 9.96113 9.16273 10 9 10C8.44772 10 8 9.55228 8 9C8 8.78697 8.06661 8.5895 8.18014 8.42728M20 15L20 7C20 7 20 4 17 4L9 4M4.55701 5.18491C4 6.02363 4 7 4 7L4 17C4 17 4 20 7 20L17 20C17.9072 20 18.5401 19.7257 18.9816 19.3429M18 13L20 15M4 17L8 14L11 16L13.6204 13.9037" fill="none" opacity="1" stroke="#000000" stroke-linecap="round" stroke-linejoin="round" stroke-width="2"/>
</g>
</svg>
