<?xml version="1.0" encoding="UTF-8" standalone="no"?>
<!DOCTYPE svg PUBLIC "-//W3C//DTD SVG 1.1//EN" "http://www.w3.org/Graphics/SVG/1.1/DTD/svg11.dtd">
<!-- Created with Vectornator (http://vectornator.io/) -->
<svg stroke-miterlimit="10" style="fill-rule:nonzero;clip-rule:evenodd;stroke-linecap:round;stroke-linejoin:round;" version="1.1" viewBox="0 0 24 24" xml:space="preserve" xmlns="http://www.w3.org/2000/svg" xmlns:xlink="http://www.w3.org/1999/xlink">
<defs/>
<g id="Layer-1">
<path d="M7 4C4 4 4 7 4 7L4 17C4 17 4 20 7 20L17 20C20 20 20 17 20 17L20 7C20 7 20 4 17 4L7 4ZM4 17L8 14L11 16L16 12L20 15M8 9C8 8.44772 8.44772 8 9 8C9.55228 8 10 8.44772 10 9C10 9.55228 9.55228 10 9 10C8.44772 10 8 9.55228 8 9Z" fill="none" fill-rule="evenodd" opacity="1" stroke="#000000" stroke-linecap="round" stroke-linejoin="round" stroke-width="2"/>
</g>
</svg>
