<?xml version="1.0" encoding="UTF-8" standalone="no"?>
<!DOCTYPE svg PUBLIC "-//W3C//DTD SVG 1.1//EN" "http://www.w3.org/Graphics/SVG/1.1/DTD/svg11.dtd">
<!-- Created with Vectornator (http://vectornator.io/) -->
<svg stroke-miterlimit="10" style="fill-rule:nonzero;clip-rule:evenodd;stroke-linecap:round;stroke-linejoin:round;" version="1.1" viewBox="0 0 24 24" xml:space="preserve" xmlns="http://www.w3.org/2000/svg" xmlns:xlink="http://www.w3.org/1999/xlink">
<defs/>
<g id="Layer-1">
<path d="M4 4L10 4M14 4L20 4M4 9C4 9 4 8 5 8L9 8C10 8 10 9 10 9L10 13C10 13 10 14 9 14L5 14C4 14 4 13 4 13L4 9ZM14 9C14 9 14 8 15 8L19 8C20 8 20 9 20 9L20 19C20 19 20 20 19 20L15 20C14 20 14 19 14 19L14 9Z" fill="none" opacity="1" stroke="#000000" stroke-linecap="round" stroke-linejoin="round" stroke-width="2"/>
</g>
</svg>
