<?xml version="1.0" encoding="UTF-8" standalone="no"?>
<!DOCTYPE svg PUBLIC "-//W3C//DTD SVG 1.1//EN" "http://www.w3.org/Graphics/SVG/1.1/DTD/svg11.dtd">
<!-- Created with Vectornator (http://vectornator.io/) -->
<svg stroke-miterlimit="10" style="fill-rule:nonzero;clip-rule:evenodd;stroke-linecap:round;stroke-linejoin:round;" version="1.1" viewBox="0 0 24 24" xml:space="preserve" xmlns="http://www.w3.org/2000/svg" xmlns:xlink="http://www.w3.org/1999/xlink">
<defs/>
<g id="Layer-1">
<path d="M9 18C9 18 9 20 11 20L13 20C15 20 15 18 15 18L15 16C15 16 19 14 19 10C19 4 14 3 12 3C10 3 5 4 5 10C5 14 9 16 9 16L9 18ZM10 20C10 20 10 21 11 21L13 21C14 21 14 20 14 20M9 16L15 16" fill="none" fill-rule="evenodd" opacity="0.982991" stroke="#000000" stroke-linecap="round" stroke-linejoin="round" stroke-width="2"/>
</g>
</svg>
