<?xml version="1.0" encoding="UTF-8" standalone="no"?>
<!DOCTYPE svg PUBLIC "-//W3C//DTD SVG 1.1//EN" "http://www.w3.org/Graphics/SVG/1.1/DTD/svg11.dtd">
<!-- Created with Vectornator (http://vectornator.io/) -->
<svg height="24.0px" stroke-miterlimit="10" style="fill-rule:nonzero;clip-rule:evenodd;stroke-linecap:round;stroke-linejoin:round;" version="1.1" viewBox="0 0 24 24" width="24.0px" xml:space="preserve" xmlns="http://www.w3.org/2000/svg" xmlns:xlink="http://www.w3.org/1999/xlink">
<defs/>
<g id="Layer-1">
<path d="M3 21L8 16M6 10.5C6 6.35786 9.35786 3 13.5 3C17.6421 3 21 6.35786 21 10.5C21 14.6421 17.6421 18 13.5 18C9.35786 18 6 14.6421 6 10.5ZM13 11C12 11 12 12 12 12C12 14 14 14 14 14C17 14 17 11 17 11C17 7 13 7 13 7C8 7 8 12 8 12C8 18 14 18 14 18" fill="none" opacity="1" stroke="#000000" stroke-linecap="round" stroke-linejoin="round" stroke-width="2"/>
</g>
</svg>
