<?xml version="1.0" encoding="UTF-8" standalone="no"?>
<!DOCTYPE svg PUBLIC "-//W3C//DTD SVG 1.1//EN" "http://www.w3.org/Graphics/SVG/1.1/DTD/svg11.dtd">
<!-- Created with Vectornator (http://vectornator.io/) -->
<svg stroke-miterlimit="10" style="fill-rule:nonzero;clip-rule:evenodd;stroke-linecap:round;stroke-linejoin:round;" version="1.1" viewBox="0 0 24 24" xml:space="preserve" xmlns="http://www.w3.org/2000/svg" xmlns:xlink="http://www.w3.org/1999/xlink">
<defs/>
<g id="Layer-1">
<path d="M21 10C22 11 21 12 21 12L20 13C20 13 19 14 18 13L13 8C11 6 9 7 8 8C7 9 6 11 8 13L13 18C14 19 13 20 13 20L12 21C12 21 11 22 10 21L5 16C2 13 2 8 5 5C8 2 13 2 16 5L21 10ZM19 8L16 11M11 16L8 19" fill="none" opacity="1" stroke="#000000" stroke-linecap="butt" stroke-linejoin="round" stroke-width="2"/>
</g>
</svg>
