<?xml version="1.0" encoding="UTF-8" standalone="no"?>
<!DOCTYPE svg PUBLIC "-//W3C//DTD SVG 1.1//EN" "http://www.w3.org/Graphics/SVG/1.1/DTD/svg11.dtd">
<!-- Created with Vectornator (http://vectornator.io/) -->
<svg height="24.0px" stroke-miterlimit="10" style="fill-rule:nonzero;clip-rule:evenodd;stroke-linecap:round;stroke-linejoin:round;" version="1.1" viewBox="0 0 24 24" width="24.0px" xml:space="preserve" xmlns="http://www.w3.org/2000/svg" xmlns:xlink="http://www.w3.org/1999/xlink">
<defs/>
<g id="Layer-1">
<path d="M7 5C4 5 4 8 4 8L4 14C4 14 4 17 7 17C8.34629 17 9 17 9 17L12 20L15 17C15 17 15.6537 17 17 17C20 17 20 14 20 14L20 8C20 8 20 5 17 5C13.4645 5 10.5355 5 7 5ZM16 11L16 11M8 11L8 11M12 11L12 11" fill="none" opacity="1" stroke="#000000" stroke-linecap="round" stroke-linejoin="round" stroke-width="2.00231"/>
</g>
</svg>
