<?xml version="1.0" encoding="UTF-8" standalone="no"?>
<!DOCTYPE svg PUBLIC "-//W3C//DTD SVG 1.1//EN" "http://www.w3.org/Graphics/SVG/1.1/DTD/svg11.dtd">
<!-- Created with Vectornator (http://vectornator.io/) -->
<svg height="24.0px" stroke-miterlimit="10" style="fill-rule:nonzero;clip-rule:evenodd;stroke-linecap:round;stroke-linejoin:round;" version="1.1" viewBox="0 0 24 24" width="24.0px" xml:space="preserve" xmlns="http://www.w3.org/2000/svg" xmlns:xlink="http://www.w3.org/1999/xlink">
<defs/>
<g id="Layer-1">
<path d="M5 7C5 7 5 5 7 5L17 5C19 5 19 7 19 7L19 17C19 17 19 19 17 19L7 19C5 19 5 17 5 17L5 7ZM9 9L15 9L15 15L9 15L9 9ZM12 5L12 3M8 5L8 3M8 21L8 19M12 21L12 19M16 21L16 19M16 5L16 3M3 8L5 8M19 8L21 8M19 12L21 12M19 16L21 16M3 16L5 16M3 12L5 12" fill="none" opacity="1" stroke="#000000" stroke-linecap="round" stroke-linejoin="round" stroke-width="2"/>
</g>
</svg>
