<?xml version="1.0" encoding="UTF-8" standalone="no"?>
<!DOCTYPE svg PUBLIC "-//W3C//DTD SVG 1.1//EN" "http://www.w3.org/Graphics/SVG/1.1/DTD/svg11.dtd">
<!-- Created with Vectornator (http://vectornator.io/) -->
<svg height="24.0px" stroke-miterlimit="10" style="fill-rule:nonzero;clip-rule:evenodd;stroke-linecap:round;stroke-linejoin:round;" version="1.1" viewBox="0 0 24 24" width="24.0px" xml:space="preserve" xmlns="http://www.w3.org/2000/svg" xmlns:xlink="http://www.w3.org/1999/xlink">
<defs/>
<g id="Layer-1">
<path d="M3 3L21 21M5 10C5 10 5 17 12 17C13.6864 17 14.9665 16.5937 15.9382 15.977M12 17L12 21M9 21L15 21M18.0231 13.6963C19 11.8834 19 10 19 10M14 9.62758L14 5C14 5 14 3 12 3C10 3 10 5 10 5L10 5.6279M10 10.1653L10 11C10 11 10 13 12 13C12.3617 13 13 13 13 13" fill="none" opacity="0.998062" stroke="#000000" stroke-linecap="round" stroke-linejoin="round" stroke-width="2"/>
</g>
</svg>
