<?xml version="1.0" encoding="UTF-8" standalone="no"?>
<!DOCTYPE svg PUBLIC "-//W3C//DTD SVG 1.1//EN" "http://www.w3.org/Graphics/SVG/1.1/DTD/svg11.dtd">
<!-- Created with Vectornator (http://vectornator.io/) -->
<svg stroke-miterlimit="10" style="fill-rule:nonzero;clip-rule:evenodd;stroke-linecap:round;stroke-linejoin:round;" version="1.1" viewBox="0 0 24 24" xml:space="preserve" xmlns="http://www.w3.org/2000/svg" xmlns:xlink="http://www.w3.org/1999/xlink">
<defs/>
<g id="Layer-1">
<path d="M7 3C5 3 5 5 5 5L5 19C5 19 5 21 7 21C10.0414 21 13.9586 21 17 21C19 21 19 19 19 19L19 5C19 5 19 3 17 3C13.9586 3 10.0414 3 7 3ZM8 6L8 11L16 11L16 6L8 6ZM10 16C10 14.8954 10.8954 14 12 14C13.1046 14 14 14.8954 14 16C14 17.1046 13.1046 18 12 18C10.8954 18 10 17.1046 10 16Z" fill="none" opacity="1" stroke="#000000" stroke-linecap="round" stroke-linejoin="round" stroke-width="2"/>
</g>
</svg>
