<?xml version="1.0" encoding="UTF-8" standalone="no"?>
<!DOCTYPE svg PUBLIC "-//W3C//DTD SVG 1.1//EN" "http://www.w3.org/Graphics/SVG/1.1/DTD/svg11.dtd">
<!-- Created with Vectornator (http://vectornator.io/) -->
<svg stroke-miterlimit="10" style="fill-rule:nonzero;clip-rule:evenodd;stroke-linecap:round;stroke-linejoin:round;" version="1.1" viewBox="0 0 24 24" xml:space="preserve" xmlns="http://www.w3.org/2000/svg" xmlns:xlink="http://www.w3.org/1999/xlink">
<defs/>
<g id="Layer-1">
<path d="M9 18L9 6L19 3L19 15M9 10L19 7M4 18.5C4 17.1193 5.11929 16 6.5 16C7.88071 16 9 17.1193 9 18.5C9 19.8807 7.88071 21 6.5 21C5.11929 21 4 19.8807 4 18.5ZM14 15.5C14 14.1193 15.1193 13 16.5 13C17.8807 13 19 14.1193 19 15.5C19 16.8807 17.8807 18 16.5 18C15.1193 18 14 16.8807 14 15.5Z" fill="none" opacity="1" stroke="#000000" stroke-linecap="round" stroke-linejoin="round" stroke-width="2"/>
</g>
</svg>
