<?xml version="1.0" encoding="UTF-8" standalone="no"?>
<!DOCTYPE svg PUBLIC "-//W3C//DTD SVG 1.1//EN" "http://www.w3.org/Graphics/SVG/1.1/DTD/svg11.dtd">
<!-- Created with Vectornator (http://vectornator.io/) -->
<svg stroke-miterlimit="10" style="fill-rule:nonzero;clip-rule:evenodd;stroke-linecap:round;stroke-linejoin:round;" version="1.1" viewBox="0 0 24 24" xml:space="preserve" xmlns="http://www.w3.org/2000/svg" xmlns:xlink="http://www.w3.org/1999/xlink">
<defs/>
<g id="Layer-1">
<path d="M17 11C17 11 18.4792 11 19.0383 11C20 11 20 12 20 12L20 18C20 18 20 20 18 20C14.4645 20 9.53553 20 6 20C4 20 4 18 4 18L4 5C4 5 4 4 5.05837 4C5.05837 4 13.1056 4 15.1067 4C16 4 16 5 16 5C16 5 16 14.4645 16 18C16 20 18 20 18 20M8 8L12 8M8 12L12 12M8 16L10 16" fill="none" opacity="1" stroke="#000000" stroke-linecap="round" stroke-linejoin="round" stroke-width="2"/>
</g>
</svg>
