<?xml version="1.0" encoding="UTF-8" standalone="no"?>
<!DOCTYPE svg PUBLIC "-//W3C//DTD SVG 1.1//EN" "http://www.w3.org/Graphics/SVG/1.1/DTD/svg11.dtd">
<!-- Created with Vectornator (http://vectornator.io/) -->
<svg stroke-miterlimit="10" style="fill-rule:nonzero;clip-rule:evenodd;stroke-linecap:round;stroke-linejoin:round;" version="1.1" viewBox="0 0 24 24" xml:space="preserve" xmlns="http://www.w3.org/2000/svg" xmlns:xlink="http://www.w3.org/1999/xlink">
<defs/>
<g id="Layer-1">
<path d="M3 7L3 6C3 6 3 4 5 4L6 4M3 17L3 18C3 18 3 20 5 20L6 20M21 7L21 6C21 6 21 4 19 4L18 4M21 17L21 18C21 18 21 20 19 20L18 20M7 12C7 12 7 13 8 13L13 13C14 13 14 12 14 12L14 9C14 9 14 8 13 8L8 8C7 8 7 9 7 9L7 12ZM10 13L10 15C10 15 10 16 11 16L16 16C17 16 17 15 17 15L17 12C17 12 17 11 16 11L14 11" fill="none" fill-rule="evenodd" opacity="0.969031" stroke="#000000" stroke-linecap="round" stroke-linejoin="round" stroke-width="2"/>
</g>
</svg>
