<?xml version="1.0" encoding="UTF-8" standalone="no"?>
<!DOCTYPE svg PUBLIC "-//W3C//DTD SVG 1.1//EN" "http://www.w3.org/Graphics/SVG/1.1/DTD/svg11.dtd">
<!-- Created with Vectornator (http://vectornator.io/) -->
<svg height="24.0px" stroke-miterlimit="10" style="fill-rule:nonzero;clip-rule:evenodd;stroke-linecap:round;stroke-linejoin:round;" version="1.1" viewBox="0 0 24 24" width="24.0px" xml:space="preserve" xmlns="http://www.w3.org/2000/svg" xmlns:xlink="http://www.w3.org/1999/xlink">
<defs/>
<g id="Layer-1">
<path d="M6 5C6 5 6 4 7 4L10 4C11 4 11 5 11 5L11 15C11 15 11 16 10 16L7 16C6 16 6 15 6 15L6 5ZM5 6C3 6 3 8 3 8L3 18C3 18 3 20 5 20L19 20C21 20 21 18 21 18L21 8C21 8 21 6 19 6L12 6M14 7L14 9C14 10 15 10 15 10L20 10M15 13L15 13M18 13L18 13M18 16L18 16M15 16L15 16" fill="none" opacity="1" stroke="#000000" stroke-linecap="round" stroke-linejoin="round" stroke-width="2"/>
</g>
</svg>
