<?xml version="1.0" encoding="UTF-8" standalone="no"?>
<!DOCTYPE svg PUBLIC "-//W3C//DTD SVG 1.1//EN" "http://www.w3.org/Graphics/SVG/1.1/DTD/svg11.dtd">
<!-- Created with Vectornator (http://vectornator.io/) -->
<svg height="24.0px" stroke-miterlimit="10" style="fill-rule:nonzero;clip-rule:evenodd;stroke-linecap:round;stroke-linejoin:round;" version="1.1" viewBox="0 0 24 24" width="24.0px" xml:space="preserve" xmlns="http://www.w3.org/2000/svg" xmlns:xlink="http://www.w3.org/1999/xlink">
<defs/>
<g id="Layer-1">
<path d="M6 20L18 20C18 20 21 20 21 17C21 15 19 14 19 14C19 14 20 12 18 11C18 11 18 9 16 8C16 8 15 3 11 3C11 3 12 4 12 5C12 7 9.11803 7.44098 8 8C6 9 6 11 6 11C4 12 5 14 5 14C5 14 3 15 3 17C3 20 6 20 6 20ZM10 16L14 16C14 17 10 17 10 16ZM10 12L10 12M14 12L14 12" fill="none" opacity="0.984884" stroke="#000000" stroke-linecap="round" stroke-linejoin="round" stroke-width="2"/>
</g>
</svg>
