<?xml version="1.0" encoding="UTF-8" standalone="no"?>
<!DOCTYPE svg PUBLIC "-//W3C//DTD SVG 1.1//EN" "http://www.w3.org/Graphics/SVG/1.1/DTD/svg11.dtd">
<!-- Created with Vectornator (http://vectornator.io/) -->
<svg height="24.0px" stroke-miterlimit="10" style="fill-rule:nonzero;clip-rule:evenodd;stroke-linecap:round;stroke-linejoin:round;" version="1.1" viewBox="0 0 24 24" width="24.0px" xml:space="preserve" xmlns="http://www.w3.org/2000/svg" xmlns:xlink="http://www.w3.org/1999/xlink">
<defs/>
<g id="Layer-1">
<path d="M5 10L19 10L17 21L7 21L5 10ZM9 10L10 17M15 10L14 17M6 10C6 10 4 9 4 7C4 5 6 5 6 5C6 5 6 3 8 3C10 3 10 5 10 5C10 5 10 3 12 3C14 3 14 5 14 5C14 5 14 3 16 3C18 3 18 5 18 5C18 5 20 5 20 7C20 9 18 10 18 10" fill="none" opacity="1" stroke="#000000" stroke-linecap="round" stroke-linejoin="round" stroke-width="2"/>
</g>
</svg>
