<?xml version="1.0" encoding="UTF-8" standalone="no"?>
<!DOCTYPE svg PUBLIC "-//W3C//DTD SVG 1.1//EN" "http://www.w3.org/Graphics/SVG/1.1/DTD/svg11.dtd">
<!-- Created with Vectornator (http://vectornator.io/) -->
<svg stroke-miterlimit="10" style="fill-rule:nonzero;clip-rule:evenodd;stroke-linecap:round;stroke-linejoin:round;" version="1.1" viewBox="0 0 24 24" xml:space="preserve" xmlns="http://www.w3.org/2000/svg" xmlns:xlink="http://www.w3.org/1999/xlink">
<defs/>
<g id="Layer-1">
<path d="M5 5C3 5 3 7 3 7L3 17C3 17 3 19 5 19C9.03113 19 14.7207 19 19 19C21 19 21 17 21 17L21 7C21 7 21 5 19 5C14.7427 5 9.03113 5 5 5ZM12 8L12 16M6 9L9 9M6 12L9 12M6 15L9 15M15 13L18 13L18 10L15 10L15 13Z" fill="none" opacity="1" stroke="#000000" stroke-linecap="round" stroke-linejoin="round" stroke-width="2.00231"/>
</g>
</svg>
