<?xml version="1.0" encoding="UTF-8" standalone="no"?>
<!DOCTYPE svg PUBLIC "-//W3C//DTD SVG 1.1//EN" "http://www.w3.org/Graphics/SVG/1.1/DTD/svg11.dtd">
<!-- Created with Vectornator (http://vectornator.io/) -->
<svg stroke-miterlimit="10" style="fill-rule:nonzero;clip-rule:evenodd;stroke-linecap:round;stroke-linejoin:round;" version="1.1" viewBox="0 0 24 24" xml:space="preserve" xmlns="http://www.w3.org/2000/svg" xmlns:xlink="http://www.w3.org/1999/xlink">
<defs/>
<g id="Layer-1">
<path d="M7 15C7 15 7 13 9 13L15 13C17 13 17 15 17 15L17 19C17 19 17 21 15 21L9 21C7 21 7 19 7 19L7 15ZM7 17L5 17C3 17 3 15 3 15L3 9C3 9 3 7 5 7L19 7C21 7 21 9 21 9L21 15C21 15 21 17 19 17L17 17M7 7L7 5C7 5 7 3 9 3L15 3C17 3 17 5 17 5L17 7M6 10L6 10" fill="none" fill-rule="evenodd" opacity="1" stroke="#000000" stroke-linecap="round" stroke-linejoin="round" stroke-width="2"/>
</g>
</svg>
