<?xml version="1.0" encoding="UTF-8" standalone="no"?>
<!DOCTYPE svg PUBLIC "-//W3C//DTD SVG 1.1//EN" "http://www.w3.org/Graphics/SVG/1.1/DTD/svg11.dtd">
<!-- Created with Vectornator (http://vectornator.io/) -->
<svg height="24.0px" stroke-miterlimit="10" style="fill-rule:nonzero;clip-rule:evenodd;stroke-linecap:round;stroke-linejoin:round;" version="1.1" viewBox="0 0 24 24" width="24.0px" xml:space="preserve" xmlns="http://www.w3.org/2000/svg" xmlns:xlink="http://www.w3.org/1999/xlink">
<defs/>
<g id="Layer-1">
<path d="M10 19C10 19 11 20 12 20C13 20 14 19 14 19C14 19 15 20 16 20C20 20 21 14 21 12C21 9 19 7 17 7C16 7 15 8 15 8C15 8 14 7 12 7C10 7 9 8 9 8C9 8 8 7 7 7C5 7 3 9 3 12C3 14 4 20 8 20C9 20 10 19 10 19ZM12 7C12 7 12 5 14 4M8 11L10 12M8 15L9 16L10 15L11 16L12 15L13 16L14 15L15 16L16 15M14 12L16 11" fill="none" opacity="1" stroke="#000000" stroke-linecap="round" stroke-linejoin="round" stroke-width="2"/>
</g>
</svg>
