<?xml version="1.0" encoding="UTF-8" standalone="no"?>
<!DOCTYPE svg PUBLIC "-//W3C//DTD SVG 1.1//EN" "http://www.w3.org/Graphics/SVG/1.1/DTD/svg11.dtd">
<!-- Created with Vectornator (http://vectornator.io/) -->
<svg height="24.0px" stroke-miterlimit="10" style="fill-rule:nonzero;clip-rule:evenodd;stroke-linecap:round;stroke-linejoin:round;" version="1.1" viewBox="0 0 24 24" width="24.0px" xml:space="preserve" xmlns="http://www.w3.org/2000/svg" xmlns:xlink="http://www.w3.org/1999/xlink">
<defs/>
<g id="Layer-1">
<path d="M5 21L16 21C21 21 21 14 16 14L12 14C12 14 10 14 10 12C10 10 12 10 12 10L19 10M5 19C4 19 3 17 3 16C3 16 3 14 5 14C7 14 7 16 7 16C7 17 6 19 5 19ZM19 8C18 8 17 6 17 5C17 5 17 3 19 3C21 3 21 5 21 5C21 6 20 8 19 8Z" fill="none" opacity="1" stroke="#000000" stroke-linecap="round" stroke-linejoin="round" stroke-width="2"/>
</g>
</svg>
