<?xml version="1.0" encoding="UTF-8" standalone="no"?>
<!DOCTYPE svg PUBLIC "-//W3C//DTD SVG 1.1//EN" "http://www.w3.org/Graphics/SVG/1.1/DTD/svg11.dtd">
<!-- Created with Vectornator (http://vectornator.io/) -->
<svg stroke-miterlimit="10" style="fill-rule:nonzero;clip-rule:evenodd;stroke-linecap:round;stroke-linejoin:round;" version="1.1" viewBox="0 0 24 24" xml:space="preserve" xmlns="http://www.w3.org/2000/svg" xmlns:xlink="http://www.w3.org/1999/xlink">
<defs/>
<g id="Layer-1">
<path d="M5 4C3 4 3 6 3 6L3 10C3 12 5 12 5 12C5 12 3 12 3 14L3 18C3 20 5 20 5 20L19 20C19 20 21 20 21 18L21 14C21 12 19 12 19 12C19 12 21 12 21 10L21 6C21 6 21 4 19 4L5 4ZM17 8L17 8M13 8L13 8M13 16L13 16M17 16L17 16M5 12L19 12" fill="none" fill-rule="evenodd" opacity="1" stroke="#000000" stroke-linecap="round" stroke-linejoin="round" stroke-width="2"/>
</g>
</svg>
