<?xml version="1.0" encoding="UTF-8" standalone="no"?>
<!DOCTYPE svg PUBLIC "-//W3C//DTD SVG 1.1//EN" "http://www.w3.org/Graphics/SVG/1.1/DTD/svg11.dtd">
<!-- Created with Vectornator (http://vectornator.io/) -->
<svg stroke-miterlimit="10" style="fill-rule:nonzero;clip-rule:evenodd;stroke-linecap:round;stroke-linejoin:round;" version="1.1" viewBox="0 0 24 24" xml:space="preserve" xmlns="http://www.w3.org/2000/svg" xmlns:xlink="http://www.w3.org/1999/xlink">
<defs/>
<g id="Layer-1">
<path d="M3 20C5 20 6 18 6 18C6 18 7 20 9 20C11 20 12 18 12 18C12 18 13 20 15 20C17 20 18 18 18 18C18 18 19 20 21 20M7 19C7 19 4 16 4 12L12 10L20 12C20 16 17 19 17 19M12 10L12 13M6 11L6 7C6 7 6 5 8 5L16 5C18 5 18 7 18 7L18 11M10 4L10 3L14 3L14 4" fill="none" opacity="1" stroke="#000000" stroke-linecap="round" stroke-linejoin="round" stroke-width="2"/>
</g>
</svg>
