<?xml version="1.0" encoding="UTF-8" standalone="no"?>
<!DOCTYPE svg PUBLIC "-//W3C//DTD SVG 1.1//EN" "http://www.w3.org/Graphics/SVG/1.1/DTD/svg11.dtd">
<!-- Created with Vectornator (http://vectornator.io/) -->
<svg height="24.0px" stroke-miterlimit="10" style="fill-rule:nonzero;clip-rule:evenodd;stroke-linecap:round;stroke-linejoin:round;" version="1.1" viewBox="0 0 24 24" width="24.0px" xml:space="preserve" xmlns="http://www.w3.org/2000/svg" xmlns:xlink="http://www.w3.org/1999/xlink">
<defs/>
<g id="Layer-1">
<path d="M3 13L21 13C21 13 21 21 12 21C3 21 3 13 3 13ZM7 21L17 21M12 9C12 9 11 8 11 7C11 6 12 6 12 5C12 4 11 3 11 3M17 9C17 9 16 8 16 7C16 6 17 6 17 5C17 4 16 3 16 3M7 9C7 9 6 8 6 7C6 6 7 6 7 5C7 4 6 3 6 3M19 13L21 8" fill="none" opacity="1" stroke="#000000" stroke-linecap="round" stroke-linejoin="round" stroke-width="2"/>
</g>
</svg>
