<?xml version="1.0" encoding="UTF-8" standalone="no"?>
<!DOCTYPE svg PUBLIC "-//W3C//DTD SVG 1.1//EN" "http://www.w3.org/Graphics/SVG/1.1/DTD/svg11.dtd">
<!-- Created with Vectornator (http://vectornator.io/) -->
<svg height="24.0px" stroke-miterlimit="10" style="fill-rule:nonzero;clip-rule:evenodd;stroke-linecap:round;stroke-linejoin:round;" version="1.1" viewBox="0 0 24 24" width="24.0px" xml:space="preserve" xmlns="http://www.w3.org/2000/svg" xmlns:xlink="http://www.w3.org/1999/xlink">
<defs/>
<g id="Layer-1">
<path d="M21 20L8 20C8 20 5 20 5 17C5 14 8 14 8 14C8 14 3 14 3 9C3 4 8 4 8 4C8 4 13 4 13 9C13 13 11 14 11 16M16 13C16 13 16 13 17 13C17 13 20 13 20 16C20 20 16 20 16 20L15 20C15 20 11 20 11 16C11 14.151 13.3648 11.9055 14 10C15 7 14 4 14 4L16 5L18 5C18 5 21 6 21 8C21 10 18 10 18 10L18 13" fill="none" opacity="1" stroke="#000000" stroke-linecap="round" stroke-linejoin="round" stroke-width="2"/>
</g>
</svg>
