<?xml version="1.0" encoding="UTF-8" standalone="no"?>
<!DOCTYPE svg PUBLIC "-//W3C//DTD SVG 1.1//EN" "http://www.w3.org/Graphics/SVG/1.1/DTD/svg11.dtd">
<!-- Created with Vectornator (http://vectornator.io/) -->
<svg height="24.0px" stroke-miterlimit="10" style="fill-rule:nonzero;clip-rule:evenodd;stroke-linecap:round;stroke-linejoin:round;" version="1.1" viewBox="0 0 24 24" width="24.0px" xml:space="preserve" xmlns="http://www.w3.org/2000/svg" xmlns:xlink="http://www.w3.org/1999/xlink">
<defs/>
<g id="Layer-1">
<path d="M17.5 14.5C17.5 13.6716 18.1716 13 19 13C19.8284 13 20.5 13.6716 20.5 14.5C20.5 15.3284 19.8284 16 19 16C18.1716 16 17.5 15.3284 17.5 14.5ZM6 3L6 5L6 3ZM12 3L12 5L12 3ZM5 4C3 4 3 6 3 6L3 9C3 9 3 15 9 15C15 15 15 9 15 9L15 6C15 6 15 4 13 4M9 15C9 15 9 21 14 21C19 21 19 16 19 16" fill="none" opacity="1" stroke="#000000" stroke-linecap="round" stroke-linejoin="round" stroke-width="2"/>
</g>
</svg>
