<?xml version="1.0" encoding="UTF-8" standalone="no"?>
<!DOCTYPE svg PUBLIC "-//W3C//DTD SVG 1.1//EN" "http://www.w3.org/Graphics/SVG/1.1/DTD/svg11.dtd">
<!-- Created with Vectornator (http://vectornator.io/) -->
<svg stroke-miterlimit="10" style="fill-rule:nonzero;clip-rule:evenodd;stroke-linecap:round;stroke-linejoin:round;" version="1.1" viewBox="0 0 24 24" xml:space="preserve" xmlns="http://www.w3.org/2000/svg" xmlns:xlink="http://www.w3.org/1999/xlink">
<defs/>
<g id="Layer-1">
<path d="M5 12L5 21M3 21L21 21M10 21L10 17C10 17 10 16 11 16L13 16C14 16 14 17 14 17L14 21M19 12L19 21M5 3L3 9L21 9L19 3L5 3ZM3 9C3 9 3 12 6 12C9 12 9 9 9 9C9 9 9 12 12 12C15 12 15 9 15 9C15 9 15 12 18 12C21 12 21 9 21 9" fill="none" opacity="1" stroke="#000000" stroke-linecap="round" stroke-linejoin="round" stroke-width="2"/>
</g>
</svg>
