<?xml version="1.0" encoding="UTF-8" standalone="no"?>
<!DOCTYPE svg PUBLIC "-//W3C//DTD SVG 1.1//EN" "http://www.w3.org/Graphics/SVG/1.1/DTD/svg11.dtd">
<!-- Created with Vectornator (http://vectornator.io/) -->
<svg height="24.0px" stroke-miterlimit="10" style="fill-rule:nonzero;clip-rule:evenodd;stroke-linecap:round;stroke-linejoin:round;" version="1.1" viewBox="0 0 24 24" width="24.0px" xml:space="preserve" xmlns="http://www.w3.org/2000/svg" xmlns:xlink="http://www.w3.org/1999/xlink">
<defs/>
<g id="Layer-1">
<path d="M11.0296 13.5524C12.2089 14.2481 13 15.5317 13 17C13 19.2091 11.2091 21 9 21C6.79086 21 5 19.2091 5 17C5 15.5203 5.80349 14.2282 6.99798 13.5363M7 13.5L7 5C7 5 7 3 9 3C11 3 11 5 11 5L11 13.5M7 10L11 10M15 10L17 8L19 10M17 9L17 15" fill="none" opacity="1" stroke="#000000" stroke-linecap="round" stroke-linejoin="round" stroke-width="2"/>
</g>
</svg>
