<?xml version="1.0" encoding="UTF-8" standalone="no"?>
<!DOCTYPE svg PUBLIC "-//W3C//DTD SVG 1.1//EN" "http://www.w3.org/Graphics/SVG/1.1/DTD/svg11.dtd">
<!-- Created with Vectornator (http://vectornator.io/) -->
<svg height="24.0px" stroke-miterlimit="10" style="fill-rule:nonzero;clip-rule:evenodd;stroke-linecap:round;stroke-linejoin:round;" version="1.1" viewBox="0 0 24 24" width="24.0px" xml:space="preserve" xmlns="http://www.w3.org/2000/svg" xmlns:xlink="http://www.w3.org/1999/xlink">
<defs/>
<g id="Layer-1">
<path d="M6 20L4 20C3 20 3 19 3 19L3 12C3 12 3 11 4 11L6 11C7 11 7 12 7 12C7 12 7 11 8 11C12 11 12 7 12 7L12 6C12 5 13 4 14 4C15 4 16 5 16 6L16 11L19 11C19 11 21 11 21 13C21 14 19 20 18 20L8 20C7 20 7 19 7 19C7 19 7 20 6 20ZM7 12L7 19" fill="none" opacity="1" stroke="#000000" stroke-linecap="butt" stroke-linejoin="round" stroke-width="2"/>
</g>
</svg>
