<?xml version="1.0" encoding="UTF-8" standalone="no"?>
<!DOCTYPE svg PUBLIC "-//W3C//DTD SVG 1.1//EN" "http://www.w3.org/Graphics/SVG/1.1/DTD/svg11.dtd">
<!-- Created with Vectornator (http://vectornator.io/) -->
<svg stroke-miterlimit="10" style="fill-rule:nonzero;clip-rule:evenodd;stroke-linecap:round;stroke-linejoin:round;" version="1.1" viewBox="0 0 24 24" xml:space="preserve" xmlns="http://www.w3.org/2000/svg" xmlns:xlink="http://www.w3.org/1999/xlink">
<defs/>
<g id="Layer-1">
<path d="M5 7C3 7 3 9 3 9L3 18C3 18 3 20 5 20C9.03113 20 14.9689 20 19 20C21 20 21 18 21 18L21 9C21 9 21 7 19 7C14.9689 7 9.03113 7 5 7ZM9 3L12 7L15 3M15 7L15 20M18 10L18 10M18 13L18 13" fill="none" opacity="1" stroke="#000000" stroke-linecap="round" stroke-linejoin="round" stroke-width="2.00231"/>
</g>
</svg>
