<?xml version="1.0" encoding="UTF-8" standalone="no"?>
<!DOCTYPE svg PUBLIC "-//W3C//DTD SVG 1.1//EN" "http://www.w3.org/Graphics/SVG/1.1/DTD/svg11.dtd">
<!-- Created with Vectornator (http://vectornator.io/) -->
<svg height="24.0px" stroke-miterlimit="10" style="fill-rule:nonzero;clip-rule:evenodd;stroke-linecap:round;stroke-linejoin:round;" version="1.1" viewBox="0 0 24 24" width="24.0px" xml:space="preserve" xmlns="http://www.w3.org/2000/svg" xmlns:xlink="http://www.w3.org/1999/xlink">
<defs/>
<g id="Layer-1">
<path d="M3 3L21 21M12 7L12 4M11 4L13 4M16.1675 8L18.2949 5.88478M17.5899 5.17564L19 6.59391M17.5899 18.8244L18.1645 18.2464M8 16L5.8726 18.1152M6.57767 18.8244L5.16752 17.4061M5.9051 5.95236L5.16752 6.59391M12 17L12 20M11 20L13 20M17 12L20 12M20 13L20 11M7 12L4 12M4 13L4 11M15.3774 15.687C14.4877 16.5024 13.302 17 12 17C9.23858 17 7 14.7614 7 12C7 10.7124 7.4867 9.53848 8.28618 8.65218M12 7C14.7614 7 17 9.23858 17 12" fill="none" opacity="1" stroke="#000000" stroke-linecap="round" stroke-linejoin="round" stroke-width="2"/>
</g>
</svg>
