<?xml version="1.0" encoding="UTF-8" standalone="no"?>
<!DOCTYPE svg PUBLIC "-//W3C//DTD SVG 1.1//EN" "http://www.w3.org/Graphics/SVG/1.1/DTD/svg11.dtd">
<!-- Created with Vectornator (http://vectornator.io/) -->
<svg height="24.0px" stroke-miterlimit="10" style="fill-rule:nonzero;clip-rule:evenodd;stroke-linecap:round;stroke-linejoin:round;" version="1.1" viewBox="0 0 24 24" width="24.0px" xml:space="preserve" xmlns="http://www.w3.org/2000/svg" xmlns:xlink="http://www.w3.org/1999/xlink">
<defs/>
<g id="Layer-1">
<path d="M3 3L21 21M15 15C15 15 14 14 12 14C10 14 9 15 9 15M18 12C18 12 16.7734 10.7734 14.3201 10.2414M21 9C21 9 18 6 12 6C11.4821 6 10.9866 6.02235 10.5134 6.06319M12 18L12 18M6.7707 6.85642C4.2569 7.7431 3 9 3 9M10.0609 10.1663C7.35362 10.6464 6 12 6 12" fill="none" opacity="1" stroke="#000000" stroke-linecap="round" stroke-linejoin="round" stroke-width="2"/>
</g>
</svg>
