<?xml version="1.0" encoding="UTF-8" standalone="no"?>
<!DOCTYPE svg PUBLIC "-//W3C//DTD SVG 1.1//EN" "http://www.w3.org/Graphics/SVG/1.1/DTD/svg11.dtd">
<!-- Created with Vectornator (http://vectornator.io/) -->
<svg height="24.0px" stroke-miterlimit="10" style="fill-rule:nonzero;clip-rule:evenodd;stroke-linecap:round;stroke-linejoin:round;" version="1.1" viewBox="0 0 24 24" width="24.0px" xml:space="preserve" xmlns="http://www.w3.org/2000/svg" xmlns:xlink="http://www.w3.org/1999/xlink">
<defs/>
<g id="Layer-1">
<path d="M3 5C3 5 3 3 5 3L9 3C11 3 11 5 11 5L11 9C11 9 11 11 9 11L5 11C3 11 3 9 3 9L3 5ZM13 15C13 15 13 13 15 13L19 13C21 13 21 15 21 15L21 19C21 19 21 21 19 21L15 21C13 21 13 19 13 19L13 15ZM7 11L7 15C7 15 7 17 9 17L13 17" fill="none" opacity="1" stroke="#000000" stroke-linecap="round" stroke-linejoin="round" stroke-width="2"/>
</g>
</svg>
